<?xml version="1.0" encoding="UTF-8"?>
<svg id="coralBanner1" xmlns="http://www.w3.org/2000/svg" viewBox="0 0 1049.26 1112.22">
  <defs>
    <style>
      .cls-1 {
        fill: #ffebde;
        stroke: #570060;
        stroke-miterlimit: 10;
        stroke-width: 3px;
      }

      .cls-2 {
        fill: #efd5d3;
        stroke-width: 0px;
      }
    </style>
  </defs>
  <path class="cls-1" d="M45.64,245.81c18.37,5.28,35.77,13.57,51.83,24.6,2.97-2.12,6.01-4.15,9.09-6.1l-31.34-36.94c-3.54-4.17-3.3-10.19.53-13.44s9.81-2.51,13.35,1.66l33.01,38.92c.18.21.31.44.47.66,13.61-6.95,28.08-12.37,43.09-16.08-3.71-1.85-7.44-3.67-11.22-5.39-4.89-2.22-7.42-7.92-5.62-12.72,1.79-4.8,7.22-6.88,12.12-4.66,22.15,10.07,43.19,22.34,63,36.55,1.69-1.43,3.93-2.22,6.41-2,12.8,1.12,25.24,1.93,36.74-.37,10.5-2.1,20.15-6.89,28.04-13.74-17.07-15.81-33.22-32.68-48.3-50.45-8.57-10.1-16.79-20.49-24.64-31.14-3.35-4.55-2.64-10.69,1.57-13.72,4.22-3.03,10.27-1.82,13.71,2.75,20.75,28.14,44.19,54.36,69.79,78.12,0-.01.01-.02.02-.03,2.21-3.69,6.7-5,10.77-3.48,0-47.87,10.84-96.65,32.39-145.25,2.07-4.67,7.63-6.43,12.42-3.93,4.8,2.49,7,8.3,4.93,12.96-18.38,41.47-28.6,82.95-30.53,123.69,18.88-6.49,36.63-16.48,51.68-29.18,3.96-3.34,10.12-2.56,13.77,1.74l.02.02c3.06,3.62,3.33,8.55,1.01,12.03,14.55,16.02,15.86,36.13,17.08,55.63.89,14.19,1.73,27.59,7.54,38.46,3.16,5.91,7.98,11.33,13.1,17.03l.44-10.78c.05-1.33.11-2.68.17-4.02-.5-.88-.91-1.81-1.15-2.83-.69-2.99.02-5.84,1.65-7.96.61-11.59,1.54-23.26,3.46-34.8-21.72-34.5-33.26-67.39-34.34-97.96-.81-22.83,4.04-44.34,8.73-65.14,1.17-5.22,6.39-8.12,11.65-6.49,5.26,1.63,8.57,7.18,7.39,12.39-4.42,19.6-8.99,39.88-8.27,60.17.78,22.02,7.98,45.73,21.38,70.77,5.69-16.54,14.03-31.4,23.94-45.18-16.71-20.89-23.06-49.58-15.36-73.72,1.47-4.62,6.16-7,10.88-5.82-3.5-9.01-6.26-18.24-8.06-27.55-1.05-5.43,2.38-10.33,7.67-10.94,5.29-.62,10.43,3.28,11.47,8.71,4.58,23.67,15.88,46.77,31.78,65.65,5.81-5.78,11.7-11.47,17.57-17.11,32.39-31.21,62.99-60.69,76.5-101.05,1.63-4.87,6.97-7.15,11.93-5.08,4.96,2.06,7.65,7.69,6.02,12.56-14.86,44.39-48.41,76.72-80.85,107.97-16.14,15.55-31.82,30.7-45.14,46.94.78,3.01.22,6.23-1.82,8.62-1.82,2.12-4.43,3.1-7.11,3-.55.77-1.11,1.53-1.65,2.31.51-.13,1.03-.24,1.57-.28l62.24-4.59c5.32-.39,10.32,3.7,11.15,9.16.83,5.45-2.81,10.19-8.13,10.58l-62.24,4.59c-3.34.24-6.55-1.28-8.68-3.79-1.27-1.49-2.15-3.33-2.46-5.36,0-.05,0-.11,0-.16-4.27,7.08-7.98,14.47-11.06,22.24,1.82-.49,3.83-.43,5.83.3,14.64,5.37,30.55,6.03,44.79,1.85,5.05-1.48,10.67,1.58,12.56,6.84,1.89,5.26-.68,10.72-5.72,12.2-18.09,5.31-38.29,4.47-56.89-2.35-1.81-.66-3.35-1.79-4.54-3.18-.33-.39-.57-.83-.84-1.25-.6,2.22-1.16,4.45-1.65,6.71,1.68,2.54,3.41,5.08,5.21,7.64,3.25,4.62,2.4,10.73-1.9,13.65-2.02,1.37-4.44,1.8-6.77,1.38-.35,3.48-.62,6.98-.86,10.48,16.61-1.72,33.54-1.88,50.48-.51,13.86-15.39,29.93-28.47,47.88-38.88,4.51-2.62,10.58-.81,13.51,3.96,2.96,4.8,1.71,10.81-2.79,13.42-12.01,6.96-23.09,15.26-33.15,24.7,10.76,1.85,21.47,4.31,32.02,7.4,5.28,1.55,8.67,7.05,7.59,12.29-1.09,5.24-6.25,8.24-11.53,6.69-34.45-10.08-70.57-13.02-105.05-8.78-.03.66-.06,1.33-.08,2l-1.35,32.79c.44.93.89,1.85,1.29,2.82.49,1.19.72,2.4.77,3.58l48.91-12.95c4.93-1.31,10.31,1.78,12.01,6.92,1.71,5.13-.91,10.34-5.84,11.64l-58.27,15.43-.91,22.22c7.66-2.86,15.63-4.97,23.75-6.23,5.08-.78,10.17,2.82,11.37,8.05,1.2,5.23-1.94,10.11-7.02,10.89-10.08,1.56-19.9,4.66-28.98,9.04l-.93,22.59c10.21-3.43,21.34-4.36,32.36-2.79.32-1.15.85-2.25,1.64-3.21,14.39-17.43,25.32-37.37,32.49-59.28,1.6-4.88,6.92-7.19,11.89-5.16,4.96,2.03,7.69,7.64,6.1,12.52-2.12,6.48-4.57,12.79-7.29,18.94l24.58,10.17c4.97,2.06,7.67,7.67,6.05,12.55-1.62,4.88-6.95,7.16-11.91,5.11l-27.01-11.18c-4.93,8.83-10.54,17.24-16.76,25.21,1.66.73,3.3,1.51,4.91,2.36,2.44,1.3,4.75,2.69,6.98,4.03,4.2,2.53,8.17,4.92,12.02,6.04,10.71,3.13,22.26-2.54,34.14-9.15,4.41-2.45,10.25-.67,13.04,4.05,2.8,4.69,1.49,10.47-2.92,12.93-14.67,8.17-30.47,15.71-48.07,10.56-6.36-1.86-11.92-5.2-16.81-8.15-1.99-1.2-3.98-2.4-6.01-3.48-15.68-8.33-35.19-8.55-49.7-.55-.19.1-.39.16-.59.25l-1.34,32.73c.51,2.3.92,4.64,1.24,7.01,10.08-7.63,22.2-12.64,35.01-14.14,5.12-.6,10.08,3.18,11.11,8.44,1.02,5.26-2.31,10-7.43,10.6-16.06,1.87-30.74,11-39.25,24.41-.61.96-1.39,1.73-2.27,2.34l-4.73,115.25c-.13,3.13-.25,6.27-.38,9.42,2.66,2.17,5.39,4.28,8.28,6.25,4.49,3.07,5.97,9.05,3.31,13.36-2.52,4.09-7.86,5.16-12.23,2.64-.16,9.84-.09,19.71.42,29.56,5.14-4.53,10.78-8.49,16.83-11.71,4.46-2.36,10.27-.46,12.98,4.28,2.71,4.73,1.3,10.48-3.16,12.85-9.47,5.03-17.7,12.27-24.07,20.94.66,4.42,1.46,8.82,2.4,13.21,12.14,11.44,25.18,21.85,38.95,30.95,8.9-17.26,16.79-34.96,23.67-53.05-12.56-16.71-26.8-37.99-28.84-61.7-1.48-17.21,3.47-32.71,8.25-47.69,1.2-3.75,2.39-7.48,3.48-11.23,5.96-20.66,5.15-36.74-2.4-47.79-3.08-4.51-2.17-10.41,2.04-13.17,4.21-2.76,10.1-1.33,13.2,3.18,11.17,16.35,12.96,38.06,5.32,64.53-1.13,3.91-2.37,7.81-3.62,11.72-4.43,13.86-8.61,26.96-7.46,40.37,1.2,13.96,8.06,27.2,17.45,40.89,9.22-27.78,16.1-56.39,20.55-85.63,1.38-9.04,2.55-18.36,3.69-27.38,3.56-28.22,7.24-57.4,17.73-84.66,6.17-16.04,14.47-30.82,23.64-44.92-16.35-23.3-21.93-52.83-16.25-78.98-2.28-5.63-5.07-11.07-8.33-16.24-.02-.02-.04-.04-.06-.06-.61-.72-1.09-1.54-1.5-2.39-4.22-6.31-9.12-12.19-14.61-17.45-4.08-3.91-4.52-10.17-1-13.99,3.53-3.82,9.69-3.75,13.77.15,2.43,2.33,4.73,4.79,6.96,7.3,4.83-9.65,11.85-18.04,20.37-24.51,1.27-10.96-.09-22.32-4.05-33.09-1.39-3.8-.49-7.88,2.31-10.39,5.4-4.85,10.68-9.16,15.91-13.08-3.72-14.4-6.86-29.18-6.88-44.37l-27.75-27.66c-.22-.22-.44-.45-.64-.69-3.38-3.99-3.47-9.76-.06-13.29,3.61-3.74,9.78-3.53,13.78.46l17.67,17.61c3.78-13.65,10.97-24.96,20.92-32.38,4.17-3.11,10.29-1.9,13.73,2.52,3.42,4.5,2.82,10.66-1.35,13.76-9.06,6.76-14.87,18.61-16.42,33.09,3.23,3.97,3.29,9.6-.07,13.06-.06.06-.14.11-.2.17.48,8.76,2.12,17.66,4.2,26.53,11.87-6.79,23.6-11.3,35.65-13.65,5.19-1.02,10.57,2.52,12.01,7.88,1.44,5.37-1.61,10.55-6.8,11.56-11.95,2.34-23.7,7.27-35.86,15.04.03,4.34-2.76,8.11-7.1,8.96-1.7.34-3.42.14-5.02-.4-2.54,1.97-5.1,4.05-7.7,6.27,2.05,7.1,3.23,14.35,3.56,21.58,3.9-1.3,7.93-2.29,12.07-2.84,4.69-.63,9.61-.9,14.36-1.16,15.74-.86,26.34-2,30.07-9.68,2.3-4.73,8.11-6.35,12.99-3.62,4.87,2.73,6.97,8.78,4.67,13.51-8.51,17.55-28.78,18.65-45.07,19.54-4.59.25-8.93.49-12.9,1.02-7.09.95-13.76,3.47-19.69,7.16-.89.93-1.96,1.67-3.17,2.13-8.84,6.44-15.62,15.65-18.97,26.3,1.19-2,2.46-3.96,3.83-5.85,3.06-4.22,9.14-4.83,13.58-1.35,4.4,3.47,5.54,9.7,2.47,13.93-15.92,21.91-16.17,55.21-1.9,80.68,4.64-6.51,9.37-12.91,14.06-19.25,6.55-8.86,13.15-17.77,19.83-26.66-.4-1.47-.49-3.02-.19-4.56,1.99-10.19.03-21.48-5.38-30.96-2.79-4.89-1.32-10.83,3.29-13.26,4.61-2.43,10.62-.42,13.4,4.46,3.57,6.26,6.05,13.06,7.49,20,15.48-19.81,31.65-39.22,49.06-57.52-.3-1.52-.3-3.09.15-4.62,1.07-3.68-1.19-8.47-5.06-15.9-2.48-4.78-5.05-9.72-6.63-15.24-4.12-14.43.36-30.13,11.15-39.07,3.98-3.29,10.09-2.49,13.71,1.78l.07.09c3.61,4.35,3.3,10.55-.7,13.87-5.25,4.35-7.52,12.3-5.52,19.32.98,3.43,2.94,7.2,5.02,11.2,1.77,3.41,3.69,7.15,5.19,11.13,7.28-6.96,14.75-13.72,22.52-20.19,8.4-7,17.31-13.9,25.92-20.58.77-.59,1.54-1.19,2.3-1.79.16-.54.37-1.07.64-1.58.1-2.36.16-4.73.17-7.11-.81-.64-1.56-1.37-2.18-2.25-8.6-12.23-18.88-23.14-30.55-32.43-.58-.46-1.1-.97-1.56-1.51-3.05-3.6-3.49-8.78-.8-12.42,3.1-4.19,9.19-4.75,13.59-1.24,6.5,5.17,12.61,10.78,18.31,16.79-1-5.14-2.21-10.26-3.68-15.3-1.56-5.35,1.36-10.6,6.52-11.74,5.16-1.14,10.59,2.26,12.17,7.61,4.31,14.78,6.79,30.06,7.5,45.25,26.05-21.34,49.54-44.73,58.82-75.57,1.48-4.93,6.74-7.37,11.74-5.45,5,1.92,7.86,7.47,6.37,12.4-6.31,20.99-17.9,38.48-32.1,54.05,1.35.79,2.57,1.86,3.5,3.26,12.55,18.87,29.6,34.55,49.27,45.36,4.73,2.6,6.82,8.45,4.63,13.05-2.18,4.61-7.79,6.23-12.53,3.62-17.19-9.44-32.63-22.11-45.4-37.16-4.07-4.79-7.87-9.84-11.37-15.09-.14-.2-.22-.42-.34-.63-8.14,7.69-16.79,14.96-25.64,22.02,14.44,8.08,30.09,13.67,45.98,16.33,5.21.87,9.07,5.81,8.64,11.02-.43,5.22-4.99,8.74-10.19,7.87-18.79-3.15-37.26-9.9-54.22-19.66-2,2.76-5.47,4.22-9.21,3.43-1.25-.26-2.41-.76-3.45-1.43-5.36,4.16-10.67,8.37-15.89,12.62l22.65,1.23c5.39.29,9.89,4.96,10.05,10.4.16,5.46-4.08,9.65-9.46,9.35l-43.63-2.37c-.31-.02-.6-.1-.9-.15-40.88,38.01-74.75,83.77-107.63,128.2-17.81,24.09-36.24,48.99-47.02,77.04-9.7,25.22-13.09,52.03-16.67,80.42-.57,4.51-1.15,9.1-1.76,13.7,7.83-8.78,17.02-16.31,27.17-22.28-.04-12.02-1.43-24.13-4.31-36.04-1.26-5.22,1.82-10.14,6.88-10.99,5.06-.84,10.18,2.7,11.45,7.92.94,3.87,1.72,7.76,2.39,11.66,6.17-14.32,15.11-27.29,26.15-37.99,3.22-14.6,12.07-25.94,20.66-36.95,5.86-7.51,11.38-14.63,14.97-22.46-.4-.99-.67-2.05-.74-3.16-.25-3.76,1.69-6.95,4.7-8.47.91-3.62,1.67-7.4,2.45-11.28,1.64-8.12,3.32-16.52,6.67-24.57,3.85-9.27,9.51-17.14,14.97-24.75,6.53-9.09,12.7-17.69,15.03-27.59.54-2.3.97-4.75,1.41-7.23,2.01-11.37,4.76-26.95,19.36-31.16,4.9-1.41,10.33,1.58,12.13,6.67,1.8,5.1-.7,10.38-5.59,11.79-4.1,1.18-5.6,8.03-7.29,17.57-.48,2.72-.98,5.53-1.61,8.24-3.13,13.33-10.61,23.74-17.84,33.81-5.13,7.14-9.97,13.88-13.06,21.3-2.67,6.43-4.12,13.61-5.65,21.22-.28,1.39-.57,2.79-.86,4.2,12.6-1.46,24.83-4.85,36.17-10.01,3.76-7.85,3.16-18.72,2.45-30.23-1.04-17.02-2.21-36.32,12.61-48.12,3.99-3.18,10.01-2.32,13.58,1.88.06.08.13.15.19.23,3.54,4.4,3.12,10.6-.94,13.83-7.06,5.62-6.96,16.07-5.95,32.6.32,5.28.65,10.82.54,16.37,3.52-2.68,6.89-5.55,10.06-8.63,3.61-3.51,9.59-3.14,13.36.82,3.75,3.97,3.91,10.01.3,13.52-23.14,22.5-54.79,35.89-87.97,37.52-.15.36-.25.74-.41,1.1-2.48,5.82-5.71,11.1-9.21,16.11,8.13.09,16.35,1.52,24.09,2.87,11.59,2.03,22.54,3.95,31.92,1.74,7.13-1.68,13.49-5.88,19.31-10.85,7.44-17.09,17.31-33.11,29.15-47.31-.29-.85-.5-1.72-.57-2.64-1.13-16.05,2.77-31.96,10.69-45.15-2.17-18.26,2.58-36.91,13.31-50.59,1.17-1.49,2.42-2.94,3.67-4.38,2.49-2.88,4.84-5.6,6.13-8.42,1.27-2.78.84-5.8.2-6.46-3.92-3.8-4.37-9.85-.95-13.54,3.42-3.7,9.39-3.62,13.33.17,8.62,8.3,8.57,20.56,4.68,29.05-.77,1.69-1.69,3.21-2.65,4.68,16.71-2.1,33.77-2.09,50.98.16,5.21.69,9.24,5.49,9.01,10.73-.24,5.25-4.66,8.95-9.87,8.27-22.02-2.88-44.63-1.67-65.64,3.41-1.31,3.22-2.35,6.58-2.99,10.06,2.24.33,4.45,1.4,6.19,3.25,3.82,4.08,3.95,10.37.18,13.96-1.99,1.9-3.77,4.01-5.44,6.22.03.1.04.2.06.3,1.42,5.19-1.49,10.22-6.51,11.24-.08.02-.17,0-.25.01-1.49,3.48-2.65,7.11-3.45,10.86,3.19-.54,6.7.57,9.22,3.28,3.91,4.25,3.89,10.39.1,13.95-12.62,11.88-23.5,25.9-32.19,41.21,1.95,3.68,1.63,8.16-1.22,11.05-2.55,2.58-5.27,5.31-8.18,8.03-.22.52-.47,1.02-.68,1.54-1.31,3.22-4.23,5.15-7.49,5.41-4.77,3.65-10.04,6.88-15.92,9.14,2.35,2.68,3.14,6.49,1.72,9.72l-34.49,78.35c28.07-6.48,54.02-14.46,68.85-33.45-2.24-7.83-7.6-15.02-14.65-19.17-4.29-2.54-6.06-7.98-3.91-12.16,2.16-4.17,7.4-5.5,11.71-2.96,6.64,3.91,12.36,9.5,16.69,15.97,2.05-5.44,3.78-11.21,5.56-17.16,2.07-6.96,4.2-14.03,6.95-20.84-3.4-4.62-6.21-9.66-8.21-14.93-1.92-5.07.46-10.41,5.31-11.94,4.85-1.53,10.34,1.33,12.26,6.4.26.69.56,1.37.86,2.04.5-.65.95-1.32,1.47-1.96,5.57-6.74,12.35-11.91,19.03-16.82-10.39-25.15-7.61-53.96,7.47-74.42,3.09-4.2,9.18-4.76,13.59-1.26,4.39,3.48,5.48,9.74,2.38,13.93-9.83,13.34-12.57,32.17-7.7,49.2,2.85-2.77,5.35-5.73,7.26-9.09,2.32-4.08,7.62-5.19,11.85-2.49,4.23,2.71,5.77,8.19,3.45,12.26-1.49,2.62-3.19,5-5.01,7.23,4.37-1.1,8.77-2.07,13.22-2.9-.27-16.89,4.02-33.42,11.96-47.7l-39.07-36.43c-.32-.29-.61-.6-.88-.92-3.18-3.75-3.37-9.17-.28-12.63,3.36-3.76,9.31-3.78,13.31-.05l37.45,34.92c3.92-4.6,8.25-8.81,13.01-12.48-.77-1.66-1.17-3.51-.98-5.39,1.15-11.08,4.77-21.78,10.47-30.94,2.77-4.44,8.76-5.46,13.38-2.28,4.63,3.2,6.13,9.37,3.37,13.81-2.61,4.19-4.55,8.84-5.93,13.69,4.17-.45,8.52,1.89,10.53,6.08,2.43,5.06.51,10.83-4.3,12.89-10.36,4.43-19.28,11.55-26.26,20.36.32,2.57-.35,5.19-2.12,7.16-1.21,1.35-2.76,2.2-4.42,2.58-5.86,10.42-9.32,22.35-9.75,34.65,6.44-.59,12.92-.9,19.43-.9l36.63-36.52c3.68-3.67,9.85-3.36,13.79.69,3.89,4.07,4.15,10.31.47,13.98l-27.99,27.91c.55,1.18.9,2.47.92,3.82.08,4.88-3.77,8.56-8.59,8.24-1.9-.13-3.79-.15-5.69-.22-1.96.6-4.1.51-6.12-.23-8.02-.07-16.01.36-23.92,1.24-1.51,2.22-3.97,3.72-6.94,3.85-2.25.09-4.4-.65-6.21-1.9-14.04,2.54-27.71,6.53-40.63,12.04-2.72,1.16-5.81.71-8.26-.92-3.01,2.5-5.79,5.1-8.18,8-1.35,1.63-2.54,3.39-3.68,5.19.17.14.33.29.5.43,4.24,3.4,5.25,9.45,2.23,13.5-2.4,3.21-6.61,4.16-10.38,2.71-1.54,4.43-2.93,9.04-4.33,13.76-3.49,11.69-7.12,23.74-13.73,34.42.23,4.11-2.34,7.54-6.1,8.4-2.08,2.48-4.26,4.83-6.6,6.98,8.03-6.03,16.03-11.7,23.63-17.07,4.24-2.99,10.32-1.75,13.7,2.85,3.32,4.57,2.57,10.7-1.68,13.7-1.82,1.28-3.67,2.59-5.53,3.91l16.32-6.59c7.12-2.88,15.19-6.13,24.19-7.01,8.88-.87,17.74.69,25.56,2.06l11.99,2.11c.93-1.06,2.09-1.92,3.51-2.45l58.99-21.73c4.91-1.81,10.68.89,12.89,6.05,2.2,5.15,0,10.8-4.92,12.61l-32.93,12.13,2.45.43c5.38.95,9.32,6.07,8.83,11.46-.49,5.38-5.24,8.98-10.6,8.03l-51.98-9.16c-7.22-1.27-14.04-2.47-20.34-1.85-6.37.62-12.87,3.24-19.16,5.78l-70.36,28.38c-1.55.62-3.2.78-4.8.55-8.38,8.45-16.01,17.6-22.31,27.62,1.51.72,2.92,1.78,4.03,3.22,3.35,4.42,2.8,10.43-1.18,13.58l101.17-31.01c5.02-1.54,10.68,1.46,12.62,6.7,1.94,5.24-.55,10.74-5.58,12.28l-156.59,48-34.55,25.66c-.28.21-.57.42-.85.63,14.39,8.2,29.19,15.6,44.58,19.71,4.66,1.25,9.25,2.12,13.73,2.65,29.84-23.79,59.69-48.36,88.78-73.11,3.96-3.37,10.13-2.6,13.79,1.7h0c3.65,4.31,3.41,10.53-.54,13.89-18.65,15.87-37.63,31.64-56.7,47.21,4.1-2.76,9.86-1.7,13.27,2.61,3.48,4.45,2.97,10.63-1.14,13.8-10.16,7.83-22.92,12.49-37.12,13.85,6.71,6.49,13.98,12.35,21.69,17.48.63-.69,1.34-1.33,2.2-1.8,25.33-14.02,44.13-36.21,64.03-59.69,15.93-18.8,32.4-38.23,52.66-53.33l2.19-1.62c4.4-3.22,8.56-6.27,10.95-10.02,1.9-2.98,2.32-7.03.91-8.85-3.46-4.46-2.92-10.64,1.21-13.79,4.13-3.15,10.22-2.12,13.75,2.38,4.38,5.65,5.8,12.14,5.32,18.25,37.99-13.96,81.03-15.2,121.99-2.89,5.27,1.58,8.63,7.11,7.5,12.34-1.13,5.23-6.32,8.18-11.58,6.6-22.06-6.63-44.79-8.86-66.83-6.93,4.78,4.26,9.18,8.9,13.33,13.31,10.55,11.19,19.67,20.85,30.39,20.72,5.36-.07,10.13,4.31,10.64,9.77.51,5.46-3.42,9.94-8.79,10.01-19.67.24-33.55-14.48-45.8-27.46-9.05-9.6-17.61-18.66-27.39-21.51-.08-.02-.16-.06-.24-.09-13.97,3.63-27.37,9.06-39.81,16.25-2.08,1.2-4.49,1.46-6.77.92-6.47,4.94-12.63,10.42-18.52,16.26,7.19,4.23,13.8,9.23,20.26,14.13,3.45,2.62,6.71,5.09,10.05,7.45,14.35,10.13,26.52,14.25,36.18,12.24,5.18-1.08,10.59,2.39,12.08,7.75,1.5,5.36-1.48,10.57-6.66,11.65-15.16,3.16-32.6-2.13-51.84-15.71-3.65-2.58-7.21-5.28-10.66-7.9-7.73-5.87-15.11-11.44-22.93-15.3-5.58,6.24-11.01,12.63-16.37,18.95-3.28,3.86-6.57,7.75-9.91,11.61,18.74,9.34,39.06,15.15,59.29,16.88,5.39.46,9.75,5.24,9.74,10.69,0,5.44-4.38,9.48-9.77,9.02-24.81-2.13-49.72-9.75-72.34-21.99-11.55,12.32-24.04,23.8-38.47,32.99,2.82,1.31,5.67,2.54,8.56,3.67,5.16,2.01,8.07,7.77,6.51,12.84-1.56,5.08-7.01,7.57-12.17,5.56-25.6-9.99-48.92-26.4-67.43-47.48-.04-.05-.09-.1-.13-.15-1.05-1.24-1.75-2.65-2.15-4.1-4.1-.64-8.25-1.49-12.44-2.61-20.96-5.6-39.94-15.96-58.2-26.78-11.24,7.24-23.92,13.62-38.18,15.92-7.69,10.77-16.42,22.04-26.25,32.81,2.49.13,4.98.4,7.47.84.75-.73,1.61-1.37,2.63-1.81l54.01-23.25c4.8-2.07,10.68.37,13.12,5.42,2.45,5.06.54,10.83-4.27,12.9l-44.77,19.28c.23,1.54.14,3.12-.41,4.62-1.76,4.81-7.17,6.94-12.08,4.74-12.31-5.5-27.14-4.69-37.8,2.06-1.74,1.1-3.76,1.47-5.74,1.24-2.73,2.12-5.51,4.17-8.36,6.13,10.62,2.55,20.74,5.93,30.03,10.86,29.23-.26,57.01-14.12,73.68-37.18,2.96-4.09,8.84-4.69,13.14-1.34,4.29,3.35,5.38,9.39,2.42,13.48-2.54,3.51-5.3,6.82-8.25,9.96,10.37,2,20.58,6.39,30.6,10.71,9.67,4.17,18.81,8.11,27.71,9.79,14.12,2.66,28.4-.37,43.52-3.58,6.91-1.47,14.06-2.99,21.32-3.96,16.2-2.17,29.77-.36,40.8,3.68,16.82-14.06,34.14-27.75,51.71-40.74,4.17-3.09,10.29-1.96,13.73,2.57,3.4,4.51,2.78,10.66-1.39,13.75-7.11,5.26-14.17,10.67-21.19,16.13,17.87,15.27,42.4,22.04,63.92,16.97,5.14-1.21,10.62,2.13,12.25,7.46,1.62,5.33-1.22,10.63-6.36,11.84-28.76,6.77-61.7-3-84.75-24.42-2.99,2.41-5.99,4.82-8.96,7.27,5.78,4.88,10.03,10.43,12.74,15.88,2.51,5.03.67,10.83-4.1,12.96-4.77,2.13-10.68-.21-13.17-5.25-2.31-4.65-5.89-8.33-10.22-11.2-.31.26-.62.52-.93.78-3.94,3.38-10.12,2.64-13.79-1.66l-.03-.04c-1.46-1.72-2.27-3.75-2.5-5.78-7.7-1.49-15.95-1.61-23.62-.58-6.56.88-13.06,2.26-19.94,3.72-16.27,3.46-33.08,7.03-51.03,3.64-11.12-2.1-21.75-6.68-32.04-11.12-16.14-6.96-30.08-12.97-42.58-8.74-2.29.77-4.72.57-6.89-.36-10.36,5.87-21.71,10.1-33.58,12.43,6.57,7.17,11.49,15.28,15.97,23.43,36.09-15.7,84.14-2.43,110.52,30.94,3.4,4.28,2.94,10.27-1.02,13.37-3.87,3.03-9.66,2.18-13.09-1.87-.08-.09-.16-.19-.23-.28-20.39-25.68-58.53-36.39-86.61-24.79,4.6,7.83,9.6,14.8,16.27,19.66,3.98,2.89,8.7,5.13,13.7,7.49,1.39.65,2.77,1.31,4.14,1.98,13.11,6.41,25.5,14.37,36.91,23.61,1.39-.47,2.92-.64,4.53-.37,13.99,2.36,27.75-6.57,41.05-15.21l4.2-2.72c6.81-4.35,13.42-7.65,19.8-9.97l-1.53-16.02c-.52-5.46,3.4-9.95,8.76-10.03,5.36-.08,10.14,4.29,10.66,9.75l1.18,12.38c9.18-.28,17.65,1.98,25.2,6.82,4.73,3.02,6.44,9.17,3.84,13.71-2.6,4.55-8.53,5.79-13.25,2.76-13.67-8.76-32.99.99-43.29,7.58l-4.11,2.66c-.29.19-.58.37-.86.56,8.59,12.71,19.13,24.16,30.21,36.19,5.41,5.88,11.01,11.95,16.34,18.17.32.37.63.73.94,1.1,22.74,26.8,34.48,51.29,35.88,74.82.33,5.46-3.77,9.79-9.15,9.66-3.04-.07-5.85-1.55-7.76-3.81-1.47-1.73-2.42-3.93-2.56-6.3-1.12-18.79-11.18-39.14-30.74-62.2-.29-.34-.58-.68-.87-1.02-1.22-1.42-2.51-2.84-3.76-4.26-.71,13.16-4.28,25.97-10.55,36.97-2.6,4.55-8.53,5.79-13.25,2.77-.95-.61-1.78-1.34-2.47-2.16-2.77-3.27-3.45-7.92-1.38-11.56,7.57-13.27,10.14-29.95,7.04-45.77-.2-1.05-.2-2.06-.09-3.04-8.46-9.37-16.77-19.14-23.96-29.85-6.22,3.27-12.79,5.94-19.78,7.27,11.07,11.83,20.75,24.99,28.64,39.18,2.65,4.77,1.15,10.49-3.35,12.79-4.5,2.3-10.29.28-12.94-4.47-13.7-24.68-33.44-45.91-56.76-61.45.21,3.39-.13,6.77-1.11,9.98-1.5,4.92-6.77,7.34-11.77,5.4-1.68-.65-3.11-1.71-4.22-3.02-2.19-2.59-3.11-6.14-2.11-9.41,1.31-4.3-.92-10.14-4.87-12.78-2.11-1.4-3.54-3.46-4.24-5.68-4.17-2.05-8.37-4.31-12.44-7.27-13.67-9.94-21.3-24.15-28.69-37.91-5.2-9.67-10.12-18.81-16.79-25.95-3.64-3.89-7.78-7.12-12.29-9.89-.75-.03-1.49-.02-2.24-.07-2.82-.17-5.38-1.58-7.15-3.67-.42-.49-.78-1.03-1.11-1.6-12.33-5.17-26.57-7.96-41.36-10.28-2.72,1.16-5.48,2.24-8.3,3.21-.08.57-.2,1.14-.39,1.7-5.04,14.81-.16,33.28,11.75,44.84,3.32,3.22,4.08,8.03,2.17,11.66,6.57,4.18,12.98,8.64,19.2,13.36,3.39,2.57,6.74,5.23,10.09,7.89,10.26,8.14,19.95,15.84,30.73,20.94,4.81,2.28,9.9,4.06,15.28,5.95,2.67.94,5.38,1.89,8.11,2.93.06.02.13.03.19.05.06.02.11.06.17.08,2.92,1.11,5.85,2.31,8.76,3.69,25.62,12.12,45.93,36.68,53,64.08.81,3.16.04,6.4-2.06,8.61-2.1,2.22-5.25,3.12-8.38,2.41l-6.96-1.57c-5.17-1.16-8.77-6.29-8.05-11.45.34-2.43,1.57-4.43,3.33-5.75-7.23-16.4-20.43-30.46-36.38-38.41-2.44,6.73-5.35,13.27-8.7,19.55l37.86,44.78c.16.07.32.12.48.2,22.17,11.88,46.72,19.6,71,22.31,5.22.58,9.33,5.31,9.19,10.57-.14,5.26-4.48,9.05-9.7,8.47-3.92-.44-7.84-1.03-11.77-1.7,9.24,10.87,15.81,23.98,18.58,37.8,1.09,5.42-2.31,10.35-7.59,11.01-3.48.43-6.91-1.1-9.15-3.75-1.16-1.37-2.01-3.04-2.38-4.89-3.28-16.4-14.3-32.04-28.76-40.85-3.04-1.85-4.88-5.01-5.19-8.25-.89-.31-1.79-.59-2.68-.91,5.98,12.27,6.28,22.93.78,31.81-2.67,4.31-8.46,5.31-12.95,2.23-.8-.55-1.51-1.2-2.12-1.91-2.76-3.26-3.36-7.92-1.17-11.45,4.58-7.4-5.39-21.1-11.75-28.62l-42.74-50.55c-15.44,21.82-36.48,39.46-60.84,50.18-3.86,1.7-8.47.38-11.29-2.94-.56-.66-1.05-1.4-1.45-2.21-2.4-4.88-.6-10.49,4.03-12.53,23.1-10.17,42.82-27.38,56.7-48.64-1.43-3.7-.63-7.87,2.34-10.38,1.4-1.18,3.08-1.82,4.82-1.97,2.4-4.71,4.54-9.56,6.37-14.54-5.17-1.82-10.47-3.74-15.73-6.23-12.94-6.13-24.05-14.94-34.79-23.47-3.23-2.56-6.45-5.12-9.72-7.6-15.16-11.49-31.5-21.32-48.58-29.21-7.22-3.33-15.27-4.57-19.16-2.94-1.16.49-1.54,1.08-1.78,1.88-.77,2.55-2.56,4.42-4.79,5.38-.07,4.05.1,8.11.6,12.2.66,5.29-3.01,9.75-8.18,9.98-3.15.14-6.14-1.33-8.14-3.69-1.29-1.52-2.17-3.4-2.42-5.47-5.24-42.19,15.52-79.4,35.59-115.37,1.43-2.56,2.81-5.09,4.22-7.64,0,0-.02,0-.02-.01-12.07-7.93-23.59-16.83-34.52-26.46-3.39.5-6.82-.91-9.05-3.54-.98-1.16-1.73-2.54-2.15-4.08-.33-1.21-.61-2.41-.91-3.62-8.77-8.57-17.07-17.64-24.84-27.15-8.17-6.6-20.42-8.72-32.31-10.77l-3.66-.64c-19.33-3.42-33.39-10.24-41.95-20.33-2.49-2.93-4.51-6.14-6.07-9.63-2.22-4.96-.18-10.47,4.54-12.31,4.73-1.84,10.35.69,12.56,5.65,3.86,8.64,14.84,14.61,32.63,17.75l3.57.62c3.34.57,6.77,1.17,10.22,1.88-9.08-13.85-17.05-28.36-23.83-43.32-2.23,1.21-5,1.46-7.7.4-20.13-7.89-39-20.32-54.57-35.95-3.45-3.47-6.72-7.06-9.85-10.75-10.7-12.61-19.72-26.32-28.51-39.68l-34.29-52.1c-7.47,1.14-15.06,1.68-22.7,1.58-2.98-.04-5.73-1.48-7.6-3.69-1.4-1.66-2.32-3.75-2.48-6.01-.36-5.29,3.56-9.52,8.77-9.45,4.06.05,8.09-.17,12.11-.52l-6.36-9.66c-3.01-4.56-1.98-10.43,2.28-13.11,4.27-2.68,10.19-1.11,13.16,3.42l10.52,15.98c11.47-2.96,22.39-7.57,32.29-13.73-25.35-20.69-55.82-37.59-89.51-49.03-3.04-1.03-6.14-1.98-9.23-2.94.63,2.61.26,5.37-1.32,7.58-12.39,17.33-32.83,28.21-54.66,29.1-3.14.13-6.11-1.33-8.11-3.69-1.29-1.52-2.17-3.42-2.43-5.5-.64-5.29,3.04-9.74,8.21-9.95,16.53-.68,31.99-8.91,41.37-22.03.11-.15.24-.26.36-.4-9.54-2.63-19.15-5.08-28.59-7.46-.65-.17-1.31-.33-1.97-.5-11.08,14.14-29.08,22.13-47.7,20.96-2.82-.17-5.37-1.58-7.15-3.67-1.51-1.78-2.45-4.05-2.5-6.48-.11-5.28,4.03-9.29,9.24-8.97,9.22.58,18.44-2.33,25.71-7.65-32.16-8.66-64.27-19.39-92.7-39.5-.78-.55-1.46-1.18-2.05-1.88-2.89-3.41-3.48-8.3-1.13-11.96,2.83-4.39,8.84-5.33,13.43-2.08,10.54,7.46,21.66,13.49,33.23,18.59,1.04-1.46,2.52-2.6,4.38-3.18,34.79-10.82,65.34-31.08,88.58-58.64-5.76-7.9-10.94-16.62-14.13-26.25-14.77,7.57-28.48,17.05-40.58,28.33-5.51,5.13-6.99,9.7-6.29,10.8.24.38.54.73.83,1.1,1.6,2.03,4.28,5.44,4.73,10.25.6,6.44-4.21,12.06-10.73,12.53-3.83.28-7.45-1.38-9.84-4.2-1.28-1.51-2.21-3.34-2.64-5.39-.51-2.42-.09-4.75,1.01-6.62-.24-.47-.45-.94-.65-1.41-18.94,2.23-38.81.63-57.73-4.77-2.04-.58-3.79-1.77-5.09-3.31-1.98-2.33-2.94-5.47-2.33-8.54,1.02-5.08,5.99-8.02,11.11-6.56,17.59,5.02,36.13,6.32,53.61,3.77.44-.06.89-.06,1.33-.05,2-4.15,5.11-8.26,9.29-12.16,1.42-1.33,2.87-2.63,4.34-3.91-12.68-7.98-26.23-14.11-40.44-18.2-2.03-.58-3.77-1.77-5.07-3.31-1.98-2.34-2.95-5.49-2.32-8.56,1.03-5.08,6.01-8.01,11.13-6.53ZM500.7,138.93c-8.41-9.92-15.63-20.93-21.56-32.54-4.07,15.69-.27,34.11,9.41,48.39,4.23-5.02,8.62-9.91,13.13-14.71-.33-.38-.66-.75-.98-1.14ZM327.88,494.01c.25,2.11-.22,4.07-1.16,5.7,10.32,14.02,18.85,28.86,25.27,44.3,5.57,13.39,9.62,27.18,13.53,40.51,2.42,8.25,4.93,16.78,7.73,24.95,11.95,34.87,31.18,67.87,55.57,96.4-2.11-20.24-2.01-40.38-1.36-60.25-4.46-4.21-8.62-8.61-12.46-13.13-16.65-19.63-27.6-41.44-34.5-58.86-12.57-31.76-18.62-64.88-24.27-97.04-5.68-5.9-11.56-11.6-17.68-17.02-4.08-3.6-4.78-9.68-1.54-13.54,3.24-3.86,9.18-4.06,13.27-.44,6.8,6.01,13.29,12.3,19.52,18.8,1.23.86,2.29,1.97,3.08,3.28,21.95,23.45,40.76,49.49,58.73,75.45l2.79-67.97c-5.65-21.24-22.03-39.82-39.3-59.33-2.09-2.37-4.21-4.8-6.33-7.22-13.12,19.6-37.84,30.11-62.28,25.45-2.37-.45-4.45-1.75-5.95-3.52-.04-.05-.07-.12-.12-.17l7.47,63.63ZM430.47,570.7c-1.45-.62-2.8-1.56-3.9-2.85-.23-.28-.46-.57-.67-.88-14.55-21.17-29.39-42.74-45.68-62.99,4.31,21.65,9.6,43.26,17.74,63.82,6.17,15.57,15.91,35,30.49,52.35l2.03-49.45ZM328.46,415.25c18.9,3.6,38.73-6.13,46.94-22.73-11.11-14.29-20.75-29.93-28.79-46.56-.77-.09-1.54-.25-2.32-.55-16.03-6.12-31.92-13.07-47.49-20.67,3.8,6.18,7.19,12.78,9.8,19.79,5.44,14.62,7.19,29.47,8.88,43.84l3.65,31.12c1.75-3.19,5.38-4.99,9.32-4.24ZM276.31,298.26c2.61-1.54,6.01-1.68,9.08-.03,16.59,8.87,33.72,16.9,51.07,24.04-5.83-15.6-10.3-31.88-13.39-48.57-12.98.33-26.08-.98-39-4.02-1.66-.39-3.15-1.19-4.38-2.26-2.44.74-4.93,1.38-7.46,1.89-8.28,1.65-16.58,1.99-24.94,1.74,5.85,4.93,11.62,9.99,17.2,15.3,3.64,3.46,7.68,7.46,11.83,11.91ZM318.97,242.41c-.33.71-.72,1.4-1.24,2.01-1.32,1.57-3.08,2.52-4.98,2.9-2.35,2.4-4.83,4.66-7.47,6.74,4.96.47,9.92.6,14.87.51-.48-4.04-.86-8.09-1.18-12.16ZM437.26,405.22c-1.79-.57-3.47-1.64-4.78-3.18-.23-.28-.46-.57-.67-.87-3.1-4.5-2.21-10.4,1.99-13.18,1.4-.92,2.83-1.79,4.27-2.65l1.41-34.39c-.37-.63-.68-1.29-.92-2-1.06-3.19-.44-6.4,1.36-8.7l.4-9.67c-3.17-5.28-7.64-10.26-12.32-15.46-5.17-5.76-10.5-11.69-14.78-18.71-.09-.03-.17-.04-.26-.07-7.24-2.77-15.67-2.22-21.99,1.43-4.05,2.34-9.34,1.14-12.51-2.6-.36-.43-.7-.88-1-1.38-2.96-4.8-1.69-10.81,2.81-13.41,7.26-4.2,15.85-6.01,24.49-5.44-2.16-9.53-2.8-19.27-3.4-28.82-1.11-17.6-2.05-32.78-12.01-43.16-.09-.09-.15-.2-.24-.3-15.8,10.96-33.52,19.49-52.08,24.92.06,2.56.14,5.12.26,7.68,2.1,41.59,13.49,81.64,32.65,116.11,7.02-15.21,15.61-29.56,25.66-42.75,3.16-4.15,9.26-4.62,13.62-1.06,4.39,3.55,5.35,9.81,2.19,13.95-11.01,14.45-20.15,30.4-27.17,47.41-.42,1.01-1.02,1.86-1.71,2.6,3.07,4.42,6.24,8.74,9.59,12.91,5.17,6.42,10.7,12.68,16.56,19.32,9.54,10.78,19.2,21.74,27.25,33.45l1.31-31.95ZM730,492.31c-10.24.74-20.59-1.04-30.68-2.81-11.8-2.07-22.32-3.89-30.92-1.52.52.56,1,1.17,1.39,1.85,2.74,4.72,1.37,10.48-3.07,12.88-5.96,3.22-11.53,7.12-16.66,11.55-.71,3.75-3.58,6.41-7.2,6.92-9.44,10.02-16.83,22.07-21.51,35.25,11.22-2.59,22.96-3.47,34.86-2.28,5.23.52,9.38,5.21,9.3,10.47-.08,5.27-4.37,9.11-9.59,8.59-47.23-4.7-93.31,30.62-100.64,77.15-.48,3.08-2.43,5.42-5.01,6.55-2.89,11.42-6.16,22.73-9.79,33.91,11.9-4.75,24.07-8.98,36.41-12.69-.25-.45-.44-.94-.62-1.42-1.39-.63-2.65-1.58-3.68-2.79-.62-.74-1.16-1.57-1.58-2.49-2.03-4.45-.6-9.36,3.14-11.66-.83-2.33-1.97-4.57-3.39-6.63-3.1-4.5-2.22-10.4,1.98-13.18,4.2-2.78,10.14-1.37,13.21,3.11,1.79,2.59,3.3,5.35,4.55,8.21,19.07-12.18,33.93-30.89,49.48-50.49,18.19-22.93,37-46.64,63.83-60.32,1.68-.86,3.55-1.11,5.36-.85l20.83-47.32ZM776.34,572.56c-17.79,11.71-40.29,17.68-63.76,22.94-2.54.57-5.15-.11-7.23-1.63-1.4,3.98-2.41,7.84-2.6,11.37,5.04-2.77,10.26-5.32,15.75-7.5,4.71-1.87,10.35.61,12.59,5.56,2.25,4.95.25,10.48-4.46,12.35-43.62,17.36-72.05,58.59-99.19,99.22,1.3-.72,2.59-1.48,3.87-2.26-.07-1.65.24-3.31,1.04-4.82,2.24-4.23,7.32-5.75,11.84-3.8,2.64-1.9,5.24-3.83,7.77-5.71l18.8-13.96c-.5-4.39,1.91-8.5,6.14-9.8l12.02-3.68,25.55-18.97c11.71-33.58,36.17-58.76,61.86-79.32ZM492.02,865.67c2.07.96,4.14,1.95,6.19,2.96-6.11-11.77-8.75-25.21-7.25-37.82-4.14.64-8.36,1.08-12.67,1.27-1.23.05-2.4-.2-3.53-.59-4.5,9.63-8.37,19.37-11.07,29.21,9.4-1.51,20.32,1.27,28.32,4.97ZM493.77,795.41c-3.11,5.57-6.23,11.18-9.26,16.82,7.78-.96,16.55-2.96,26.25-7.01,1.36-1.27,3.11-2.09,5.08-2.27,21.17-10.11,46.45-30.2,75.3-69.85.05-3.93,2.42-7.23,5.98-8.43.97-1.4,1.94-2.78,2.92-4.23,3.01-4.46,6.02-8.97,9.04-13.49,22.52-33.76,45.66-68.35,77.75-91.58-4.57-14.55,2.07-29.69,6.51-39.76l3.01-6.83c-15.3,12.06-28,28.06-41.25,44.76-17.45,22-35.42,44.65-60.41,58.24-.01.48-.07.96-.1,1.44,6.1-1.56,12.22-3.02,18.39-4.32,5.01-1.06,10.25,2.28,11.71,7.47,1.47,5.18-1.41,10.24-6.42,11.29-27.6,5.82-54.58,14.38-80.2,25.44-.82.36-1.68.55-2.55.64-.57,1.31-1.42,2.5-2.62,3.41-.66.5-1.39.85-2.14,1.13-1.01,2.61-2.04,5.22-3.1,7.82,5.98-1.27,12.65-.63,17.91,1.29,9.26,3.36,12.7,2.91,13.55,2.68,1.9-4.62,7.22-6.59,12.04-4.39,4.89,2.24,7.4,7.94,5.6,12.73-3.04,8.07-11.79,15.83-36.22,6.95-2.97-1.08-6.61-.85-8.48-.27.29,4.44-2.51,8.36-6.89,9.23-3.14.62-6.3-.54-8.61-2.73-4.46,9.56-9.19,19.01-14.23,28.32-2.78,5.13-5.65,10.29-8.55,15.47ZM249.66,499.01l30.72,46.69c9.84,14.94,20,30.33,32.13,43.37,5.19-20.63-4.01-45.62-22.05-59.02-4.36-3.24-5.61-9.26-2.76-13.44,2.85-4.18,8.7-4.93,13.07-1.69,25.82,19.17,38.14,54.19,29.29,83.27-.57,1.87-1.69,3.37-3.12,4.42,9.34,7.58,19.63,13.94,30.44,18.81-.85-2.29-1.74-4.57-2.53-6.88-2.95-8.63-5.53-17.39-8.02-25.86-3.93-13.37-7.64-26.01-12.76-38.32-10.36-24.94-26.9-48.24-48.08-68.64-11.05,7.54-23.34,13.37-36.35,17.28ZM129.95,384.6c18.45,4.67,37.54,9.49,55.96,15.75,18.76,6.37,36.61,14.36,53.28,23.69-1.4-6.52-2.12-13.13-2.11-19.69-.37-.32-.75-.65-1.08-1.03l-21.43-24.64c-18.94,6.43-40.96,5.58-60.41-2.61-1.57-.66-2.9-1.67-3.95-2.9-2.26-2.66-3.15-6.35-2.02-9.67,1.65-4.86,7-7.11,11.95-5.03,12.87,5.42,27.19,6.72,40.25,3.91l-39.11-44.97c-.81-.94-1.68-1.95-2.51-2.92-11.51,13.21-24.6,24.81-38.96,34.61,2.83,4.14,6.57,7.71,10.85,10.21,4.68,2.74,6.6,8.62,4.29,13.15-2.31,4.53-7.98,5.99-12.66,3.26-5.35-3.12-10.21-7.24-14.27-12.03-1.35-1.59-2.59-3.26-3.75-4.98-8.01,4.48-16.34,8.45-24.96,11.86,16.29,5.34,33.26,9.63,50.65,14.03ZM174.98,305.42l46.1,53.01c1.94.96,3.64,2.53,4.72,4.63.25.49.43.98.6,1.48l13.95,16.04c1.75-6.16,4.16-12.08,7.32-17.55,2.53-4.39,8.29-5.57,12.85-2.62,4.56,2.93,6.21,8.89,3.67,13.29-11.03,19.12-11.02,44.89-.07,65.91,15.8,10.98,30.17,23.25,42.83,36.55l-10.22-87.1c-1.55-13.18-3.15-26.81-7.73-39.11-6.03-16.19-17.39-31.66-36.81-50.14-22.43-21.34-47.23-39.44-73.9-54.11.04.11.1.21.14.33,1.6,5.15-1.12,10.3-6.08,11.51-7.97,1.93-15.76,4.42-23.35,7.37,3.89,15.05,15.61,28.59,26,40.52Z"/>
  <path class="cls-2" d="M617.17,7.5c.6,0,1.21.13,1.81.38,2.53,1.06,4,3.97,3.2,6.35-14.48,43.24-47.57,75.12-79.58,105.96-15.67,15.1-31.88,30.72-45.54,47.37l-1.61,1.97.64,2.46c.41,1.56.12,3.05-.78,4.1-.9,1.05-2.11,1.27-2.97,1.27-.06,0-.11,0-.17,0l-2.68-.1-1.56,2.17-.45.63c-.2.27-.4.55-.59.83l-.11-.77-4.04,6.7-4.16,5.96.67-.17c-4.41,7.37-8.17,14.96-11.19,22.58l-1.75,4.43-.27-.43-.95,3.52-.68,1.72.23-.06-1.56,5.76c-.69,2.56-1.25,4.83-1.71,6.95l-.45,2.07,1.17,1.76c1.87,2.83,3.6,5.36,5.29,7.76.87,1.24,1.23,2.73.99,4.09-.14.76-.53,1.82-1.61,2.55-.65.44-1.41.67-2.25.67-.28,0-.56-.03-.84-.07l-5.31-.94-.53,5.37c-.32,3.17-.59,6.55-.87,10.64l-.4,5.92,5.91-.61c8.97-.93,18.16-1.4,27.34-1.4,7.35,0,14.83.3,22.23.9l2.46.2,1.65-1.84c13.56-15.06,29.27-27.81,46.67-37.9.6-.35,1.28-.53,2.02-.53,1.83,0,3.69,1.09,4.73,2.79.79,1.28,1.05,2.76.72,4.07-.19.74-.64,1.75-1.77,2.4-12.2,7.07-23.66,15.61-34.06,25.39l-7.31,6.87,9.89,1.7c10.68,1.84,21.26,4.28,31.46,7.27,2.78.82,4.66,3.78,4.1,6.47-.39,1.89-1.9,3.12-3.85,3.12-.45,0-.92-.07-1.38-.2-24.62-7.21-50.03-10.86-75.52-10.86-10.58,0-21.2.65-31.55,1.92l-4.21.52-.18,4.24-.04.93-.05,1.07-1.35,32.79-.05,1.24.54,1.12.1.2c.39.82.76,1.59,1.08,2.36.24.58.37,1.19.39,1.87l.25,6.23,6.03-1.6,48.92-12.95c.33-.09.68-.13,1.03-.13,2.14,0,4.23,1.59,4.96,3.8.42,1.25.34,2.51-.21,3.53-.32.6-.96,1.38-2.17,1.7l-58.27,15.43-3.57.94-.15,3.68-.91,22.22-.31,7.52,7.05-2.63c7.44-2.78,15.1-4.79,22.76-5.97.21-.03.42-.05.63-.05,2.31,0,4.55,1.88,5.1,4.28.28,1.24.1,2.43-.53,3.36-.38.56-1.11,1.28-2.38,1.48-10.49,1.62-20.72,4.81-30.4,9.48l-2.7,1.3-.12,2.99-.93,22.59-.3,7.26,6.89-2.31c6.46-2.17,13.31-3.27,20.37-3.27,3.21,0,6.47.23,9.69.69l4.35.62,1.17-4.24c.15-.54.38-1,.68-1.36,14.79-17.92,26.02-38.41,33.39-60.91.49-1.51,1.82-2.45,3.46-2.45.59,0,1.19.12,1.79.37,2.54,1.04,4.02,3.94,3.24,6.34-2,6.1-4.39,12.32-7.11,18.48l-2.07,4.68,4.73,1.96,24.58,10.17c2.54,1.05,4.01,3.96,3.22,6.35-.5,1.5-1.82,2.44-3.46,2.44-.6,0-1.2-.13-1.8-.37l-27.01-11.18-4.11-1.7-2.17,3.88c-4.74,8.49-10.23,16.76-16.34,24.57l-3.95,5.06,5.87,2.59c1.75.77,3.25,1.49,4.59,2.2,2.3,1.22,4.52,2.56,6.68,3.85l.08.05c4.48,2.7,8.72,5.25,13.18,6.55,2.47.72,5.08,1.09,7.76,1.09,10.2,0,20.52-5.27,30.22-10.67.56-.31,1.18-.47,1.85-.47,1.74,0,3.48,1.06,4.46,2.71.72,1.2.94,2.59.62,3.8-.18.68-.62,1.61-1.67,2.2-10.55,5.88-21.86,11.61-33.89,11.61-3.54,0-6.93-.49-10.35-1.49-5.75-1.68-11-4.85-15.64-7.64l-.33-.2c-1.9-1.14-3.87-2.33-5.9-3.41-8.6-4.57-18.37-6.99-28.24-6.99s-18.4,2.2-26.05,6.38c-.14.06-.28.11-.42.18l-2.8,1.27-.13,3.07-1.34,32.73-.03.66.14.64c.47,2.11.86,4.33,1.17,6.59l1.14,8.5,6.84-5.18c9.56-7.24,20.82-11.79,32.57-13.16.16-.02.33-.03.49-.03,2.39,0,4.64,1.96,5.13,4.45.24,1.23.01,2.4-.64,3.29-.4.55-1.16,1.24-2.45,1.4-17.54,2.04-33.58,12.02-42.89,26.7-.22.34-.52.65-.93.94l-2.02,1.42-.1,2.46-4.73,115.25c-.13,3.13-.26,6.28-.38,9.43l-.1,2.49,1.93,1.58c3.16,2.58,5.9,4.64,8.62,6.5,2.27,1.55,3.13,4.57,1.88,6.6-.87,1.41-2.28,1.62-3.04,1.62-.82,0-1.67-.24-2.44-.68l-7.35-4.23-.14,8.48c-.18,11.11-.04,20.89.42,29.9l.53,10.35,7.77-6.85c4.94-4.36,10.28-8.07,15.87-11.04.54-.29,1.14-.43,1.78-.43,1.78,0,3.55,1.09,4.52,2.79.69,1.21.89,2.59.55,3.79-.19.67-.65,1.59-1.71,2.16-9.96,5.29-18.87,13.03-25.76,22.39l-1.22,1.66.31,2.04c.68,4.55,1.51,9.1,2.45,13.52l.33,1.52,1.13,1.07c12.47,11.76,25.8,22.35,39.62,31.49l4.65,3.07,2.55-4.95c8.93-17.31,16.96-35.33,23.9-53.56l.98-2.58-1.66-2.2c-12.71-16.9-25.96-37.14-27.86-59.12-1.4-16.22,3.4-31.23,8.03-45.74l.07-.22c1.16-3.64,2.37-7.4,3.45-11.15,6.39-22.16,5.36-39.65-3.07-51.99-.8-1.18-1.12-2.57-.87-3.83.14-.7.52-1.67,1.52-2.33.59-.39,1.28-.59,2.03-.59,1.63,0,3.28.93,4.3,2.4,10.29,15.06,11.85,35.36,4.65,60.33-1.13,3.9-2.37,7.81-3.59,11.61-4.58,14.34-8.91,27.89-7.67,42.3,1.13,13.13,6.78,26.48,18.31,43.29l5.7,8.3,3.17-9.56c9.3-28.03,16.28-57.12,20.75-86.46,1.39-9.11,2.57-18.46,3.71-27.52,3.52-27.92,7.16-56.78,17.43-83.47,5.38-13.99,12.74-27.96,23.17-43.99l1.84-2.83-1.94-2.77c-15.19-21.64-20.97-49.7-15.46-75.05l.33-1.51-.58-1.43c-.4-.98-.81-1.96-1.24-2.93l10.72-17.98c1.22-2.04,2.39-3.84,3.58-5.48.98-1.35,2.41-1.55,3.17-1.55,1.13,0,2.3.42,3.27,1.18,2.29,1.8,2.99,5.04,1.52,7.06-16.76,23.07-17.67,58.46-2.22,86.06l3.86,6.88,4.58-6.42c4.72-6.62,9.65-13.29,14.01-19.18,6.69-9.05,13.25-17.89,19.81-26.63l1.47-1.96-.64-2.36c-.22-.79-.25-1.56-.11-2.29,2.22-11.35.05-23.89-5.94-34.4-.74-1.29-.95-2.77-.57-4.04.21-.72.7-1.71,1.86-2.32.57-.3,1.21-.46,1.89-.46,1.91,0,3.8,1.17,4.83,2.97,3.22,5.65,5.56,11.88,6.94,18.54l2.2,10.56,6.64-8.5c17.66-22.61,33.15-40.77,48.74-57.15l1.78-1.87-.49-2.53c-.16-.85-.15-1.61.04-2.26,1.6-5.48-.98-11.06-5.42-19.61-2.37-4.56-4.82-9.27-6.26-14.3-3.58-12.56.25-26.16,9.53-33.84.88-.73,1.86-.88,2.54-.88,1.53,0,3.09.76,4.16,2.03l.05.06c.98,1.18,1.47,2.67,1.34,4.08-.07.79-.37,1.9-1.38,2.74-6.73,5.58-9.67,15.67-7.14,24.54,1.12,3.92,3.19,7.91,5.39,12.14,1.91,3.68,3.6,7.01,4.94,10.59l2.66,7.09,5.47-5.23c7.74-7.4,15.03-13.93,22.26-19.96,8.4-7,17.24-13.85,25.79-20.47l1.32-1.02.99-.77,1.28-.99.46-1.55c.07-.22.16-.45.28-.68l.51-.98.05-1.11c.11-2.52.17-4.98.17-7.32v-2.42s-1.89-1.5-1.89-1.5c-.54-.43-.92-.81-1.2-1.22-8.88-12.62-19.49-23.88-31.53-33.47-.32-.25-.61-.53-.86-.83-1.61-1.89-1.86-4.51-.59-6.21.98-1.32,2.4-1.52,3.15-1.52,1.15,0,2.32.43,3.31,1.22,6.25,4.97,12.24,10.46,17.8,16.32l11.83,12.46-3.29-16.86c-1.08-5.53-2.35-10.83-3.79-15.74-.39-1.34-.26-2.66.37-3.72.37-.63,1.1-1.45,2.43-1.74.31-.07.63-.1.94-.1,2.34,0,4.63,1.82,5.34,4.23,4.15,14.23,6.61,29.06,7.3,44.08l.46,9.95,7.7-6.31c24.26-19.87,50.41-44.67,60.44-78,.47-1.57,1.81-2.54,3.48-2.54.55,0,1.12.11,1.68.32,2.56.98,4.11,3.86,3.37,6.29-5.48,18.2-15.62,35.25-31.01,52.12l-4.17,4.57,5.33,3.12c.79.46,1.41,1.03,1.86,1.71,13,19.53,30.64,35.78,51.03,46.97,2.42,1.33,3.57,4.31,2.52,6.53-.59,1.26-1.82,2.01-3.28,2.01-.77,0-1.58-.22-2.32-.62-16.7-9.17-31.5-21.29-43.99-36.02-3.9-4.59-7.57-9.47-10.92-14.48-.08-.16-.17-.33-.26-.49l-3.16-5.5-4.61,4.36c-7.12,6.73-15.17,13.64-25.32,21.75l-5.81,4.64,6.49,3.63c15.11,8.45,31.13,14.14,47.6,16.9,2.65.44,4.7,3.05,4.48,5.68-.17,2.01-1.66,3.42-3.64,3.42-.24,0-.49-.02-.74-.06-18.17-3.04-35.85-9.46-52.55-19.06l-3.9-2.24-2.64,3.64c-.73,1.01-1.88,1.58-3.16,1.58-.32,0-.65-.04-.97-.1-.61-.13-1.22-.38-1.81-.76l-2.97-1.89-2.78,2.16c-5.76,4.48-10.99,8.63-15.98,12.69l-10.03,8.17,12.92.7,22.65,1.23c2.8.15,5.24,2.7,5.32,5.56.04,1.21-.36,2.3-1.12,3.08-.51.52-1.41,1.14-2.82,1.14-.09,0-.17,0-.26,0l-43.46-2.36h0c-.2-.04-.4-.08-.61-.11l-2.38-.35-1.76,1.64c-41.27,38.37-75.31,84.39-108.26,128.91-18.01,24.35-36.62,49.52-47.65,78.19-9.93,25.8-13.34,52.9-16.96,81.59-.56,4.44-1.14,9.04-1.75,13.67l-2.14,16.13,10.83-12.15c7.48-8.39,16.22-15.55,25.97-21.29l2.47-1.45v-2.87c-.05-12.62-1.54-25.14-4.46-37.2-.3-1.25-.12-2.45.5-3.39.38-.57,1.09-1.29,2.35-1.5.22-.04.45-.06.68-.06,2.32,0,4.5,1.82,5.09,4.22.87,3.59,1.65,7.4,2.33,11.34l2.86,16.59,6.66-15.46c5.86-13.61,14.52-26.18,25.04-36.37l1.08-1.05.32-1.47c2.98-13.5,11.49-24.41,19.72-34.95,5.75-7.37,11.7-15,15.58-23.45l.9-1.97-.82-2c-.22-.53-.34-1.07-.38-1.6-.11-1.63.63-3,1.96-3.67l2.04-1.03.56-2.21c.94-3.75,1.74-7.7,2.51-11.54,1.59-7.88,3.23-16.02,6.38-23.6,3.62-8.72,9.09-16.34,14.39-23.71l.03-.04c6.83-9.51,13.28-18.48,15.83-29.36.55-2.35.99-4.83,1.42-7.23l.05-.28c1.88-10.64,4.21-23.87,15.82-27.22.35-.1.72-.15,1.1-.15,2.1,0,4.17,1.56,4.93,3.69.45,1.26.4,2.53-.14,3.57-.31.61-.93,1.4-2.12,1.74-7.4,2.14-9.14,11.98-10.83,21.51-.47,2.64-.95,5.38-1.55,7.96-2.9,12.37-10.09,22.37-17.03,32.03-5.3,7.38-10.31,14.34-13.61,22.3-2.86,6.89-4.35,14.3-5.93,22.15-.23,1.17-.48,2.34-.72,3.52l-.13.65-1.41,6.78,6.88-.8c13.11-1.52,25.78-5.03,37.66-10.42l1.65-.75.79-1.64c4.38-9.12,3.64-21.11,2.94-32.7-1.01-16.58-2.05-33.72,10.73-43.9.87-.69,1.83-.83,2.48-.83,1.53,0,3.09.76,4.17,2.04l.1.12c.96,1.2,1.42,2.69,1.27,4.09-.09.78-.41,1.89-1.43,2.7-9.6,7.65-8.74,21.82-7.83,36.82.3,4.91.64,10.48.53,15.97l-.21,10.37,8.25-6.3c3.82-2.91,7.35-5.95,10.51-9.02.84-.82,1.85-.99,2.55-.99,1.33,0,2.68.61,3.68,1.66,1.88,2,2.09,4.91.45,6.5-11.04,10.74-24.06,19.35-38.69,25.57-14.59,6.21-30.08,9.76-46.04,10.54l-3.19.16-1.2,2.96c-.1.24-.19.49-.27.73-.03.1-.06.19-.1.29-2.05,4.81-4.81,9.64-8.71,15.2l-5.43,7.76,9.47.11c7.83.09,16.04,1.53,23.29,2.8,8.22,1.44,15.98,2.8,23.44,2.8,3.86,0,7.29-.36,10.48-1.11,7.01-1.65,13.82-5.43,21.42-11.91l.88-.75.46-1.06c7.27-16.71,16.83-32.22,28.4-46.1l1.8-2.16-.91-2.66c-.18-.54-.29-.99-.31-1.37-1.04-14.77,2.51-29.76,9.99-42.22l.88-1.47-.2-1.7c-2.05-17.25,2.42-34.35,12.28-46.91,1.14-1.45,2.4-2.91,3.53-4.21,2.72-3.15,5.3-6.13,6.88-9.6,1.72-3.75,1.9-9.27-.76-12.02l-.05-.05-.05-.05c-1.95-1.89-2.3-4.9-.76-6.56.86-.92,1.93-1.12,2.68-1.12,1.26,0,2.51.53,3.51,1.49,6.86,6.6,6.75,16.49,3.6,23.37-.56,1.22-1.26,2.46-2.29,4.02l-5.95,9.06,10.75-1.35c7.98-1,16.11-1.51,24.16-1.51,8.47,0,17.06.56,25.55,1.67,2.65.35,4.78,2.89,4.66,5.55-.1,2.11-1.6,3.58-3.65,3.58-.19,0-.39-.01-.58-.04-7.98-1.04-16.14-1.57-24.25-1.57-14.73,0-29.26,1.71-43.21,5.08l-2.49.6-.97,2.37c-1.5,3.68-2.61,7.39-3.28,11.05l-.94,5.09,5.12.76c.88.13,2.16.53,3.27,1.73,1.95,2.09,2.13,5.26.38,6.92-1.98,1.88-3.88,4.05-5.97,6.81l-1.48,1.95.6,2.23c.03.16.07.31.11.47.34,1.25.2,2.47-.39,3.44-.33.54-.94,1.21-2.02,1.51-.12.01-.25.03-.37.05l-2.68.46-1.07,2.5c-1.62,3.78-2.88,7.75-3.74,11.79l-1.53,7.19,7.25-1.22c.25-.04.5-.06.76-.06,1.45,0,2.89.66,3.95,1.8,2.01,2.18,2.16,5.22.35,6.92-12.89,12.13-24.03,26.39-33.11,42.38l-1.36,2.39,1.29,2.43c1,1.88.85,3.96-.36,5.19-2.4,2.43-5.13,5.18-8.03,7.89l-.79.73-.42.99c-.08.2-.17.39-.26.58-.15.33-.3.67-.44,1-.78,1.92-2.55,2.26-3.28,2.32l-1.46.12-1.16.89c-4.97,3.8-9.77,6.56-14.67,8.45l-6.32,2.43-7.4.53c-1.46.11-2.99.16-4.54.16-8.35,0-17.15-1.54-24.92-2.9-7.97-1.4-15.5-2.71-22.5-2.71-3.97,0-7.44.42-10.61,1.3l-7.89,2.18,5.54,6.03c.33.36.58.68.75.98.7,1.21.91,2.6.57,3.8-.19.67-.64,1.6-1.7,2.17-6.15,3.32-12.06,7.41-17.55,12.17l-1.32,1.14-.32,1.72c-.3,1.57-1.44,2.68-2.98,2.89l-1.74.24-1.21,1.28c-9.91,10.52-17.72,23.31-22.58,37.01l-3.06,8.6,8.9-2.06c7.68-1.77,15.5-2.67,23.26-2.67,3.32,0,6.68.17,9.98.5,2.64.26,4.84,2.74,4.8,5.42-.03,2.15-1.57,3.72-3.65,3.72-.15,0-.29,0-.44-.02-2.96-.3-5.98-.44-8.98-.44-22.62,0-45.08,8.36-63.25,23.55-18.32,15.31-30.34,35.99-33.85,58.24-.27,1.72-1.42,2.46-2.08,2.75l-2.24.98-.6,2.37c-2.86,11.28-6.12,22.58-9.7,33.59l-3.29,10.14,9.9-3.95c11.57-4.62,23.68-8.84,36-12.54l5.97-1.79-3.05-5.44c-.07-.13-.2-.47-.31-.76l-.73-1.92-1.87-.85c-.74-.34-1.41-.85-1.94-1.48-.34-.4-.62-.84-.84-1.33-.95-2.07-.43-4.32,1.22-5.34l3.44-2.13-1.36-3.81c-.99-2.78-2.33-5.39-3.98-7.78-.81-1.17-1.13-2.57-.89-3.83.14-.7.51-1.68,1.51-2.35.6-.39,1.29-.6,2.06-.6,1.63,0,3.27.91,4.28,2.38,1.54,2.24,2.92,4.72,4.09,7.39l2.35,5.34,4.92-3.14c19.83-12.67,34.83-31.58,50.71-51.61,17.86-22.51,36.32-45.78,62.18-58.96.52-.27,1.11-.4,1.73-.4.21,0,.42.02.64.05l3.76.54,1.53-3.48,20.83-47.32,2.86-6.5,3.95,4.5c1.13,1.29,1.49,3.06.9,4.41l-34.49,78.35-4.02,9.13,9.72-2.25c26.06-6.02,55.23-14.2,71.66-35.25l1.57-2.01-.7-2.45c-2.62-9.15-8.94-17.41-16.91-22.1-2.02-1.2-2.94-3.74-2-5.56.72-1.39,2.09-1.54,2.65-1.54.7,0,1.42.21,2.08.6,5.84,3.44,11.05,8.43,15.08,14.45l5.4,8.06,3.43-9.08c2.15-5.69,3.94-11.69,5.67-17.5,1.91-6.41,4.07-13.67,6.79-20.39l1.05-2.59-1.66-2.25c-3.22-4.37-5.76-8.99-7.56-13.73-.48-1.26-.46-2.54.06-3.6.3-.61.9-1.42,2.08-1.8.38-.12.78-.18,1.19-.18,2.08,0,4.09,1.47,4.89,3.59.31.8.64,1.58.96,2.3l3.43,7.71,5.11-6.72c.21-.27.41-.55.61-.83.26-.36.51-.7.73-.97,5.15-6.23,11.52-11.11,18.13-15.98l3.15-2.32-1.49-3.62c-4.8-11.61-6.68-24.25-5.46-36.56,1.22-12.28,5.48-23.68,12.34-32.98.98-1.33,2.4-1.52,3.15-1.52,1.15,0,2.32.43,3.31,1.21,2.28,1.81,2.95,5.03,1.46,7.05-10.57,14.34-13.82,34.86-8.48,53.54l2.3,8.04,5.99-5.83c3.48-3.39,6.14-6.72,8.12-10.2.74-1.29,2.05-1.43,2.58-1.43.75,0,1.52.24,2.22.69,1.98,1.27,2.8,3.82,1.8,5.58-1.26,2.21-2.74,4.34-4.54,6.54l-9.6,11.72,14.69-3.71c4.33-1.09,8.67-2.04,12.91-2.83l4.16-.77-.07-4.23c-.25-15.77,3.66-31.39,11.33-45.2l1.9-3.42-2.86-2.67-39.08-36.44c-.16-.15-.32-.31-.46-.48-1.58-1.86-1.74-4.52-.37-6.06.86-.96,1.95-1.16,2.72-1.16,1.23,0,2.45.51,3.45,1.44l37.45,34.92,3.82,3.57,3.39-3.98c3.8-4.46,7.93-8.42,12.26-11.77l3.16-2.44-1.68-3.62c-.45-.97-.63-1.9-.54-2.77,1.07-10.33,4.44-20.3,9.74-28.81.7-1.13,1.92-1.77,3.33-1.77,1.02,0,2.05.34,2.97.97,2.41,1.66,3.31,4.89,1.97,7.05-2.74,4.41-4.93,9.45-6.49,14.98l-2.02,7.13,7.37-.8c.16-.02.33-.03.49-.03,2.04,0,4.05,1.32,4.99,3.3.63,1.31.73,2.76.28,3.97-.26.7-.83,1.63-2.03,2.15-10.78,4.6-20.54,12.16-28.21,21.85l-1.3,1.64.25,2.07c.09.73.09,2.13-.88,3.22-.47.52-1.08.87-1.82,1.04l-2.15.5-1.08,1.93c-6.35,11.29-9.94,24.06-10.39,36.92l-.2,5.67,5.65-.51c6.37-.58,12.76-.88,18.98-.88h2.06s1.46-1.46,1.46-1.46l36.62-36.52c.91-.91,2.02-1.1,2.79-1.1,1.4,0,2.82.63,3.86,1.7,2.03,2.13,2.28,5.26.55,6.98l-27.99,27.91-2.49,2.48,1.49,3.18c.29.61.44,1.21.45,1.77.02,1.18-.46,1.91-.86,2.32-.38.39-1.06.85-2.13.85-.08,0-.17,0-.26,0-1.35-.09-2.67-.13-3.95-.17-.63-.02-1.25-.04-1.88-.06l-.85-.03-.81.25c-.39.12-.8.18-1.22.18-.57,0-1.15-.11-1.73-.32l-.81-.3h-.86c-.59-.01-1.17-.02-1.76-.02-7.48,0-15.14.43-22.76,1.28l-2.28.25-1.29,1.9c-.4.59-1.33,1.6-3.01,1.67-.06,0-.12,0-.17,0-1.25,0-2.31-.55-2.98-1.02l-1.7-1.18-2.03.37c-14.65,2.65-28.68,6.8-41.7,12.36-.38.16-.8.25-1.23.25-.77,0-1.59-.26-2.31-.74l-3.09-2.04-2.85,2.37c-3.65,3.03-6.46,5.78-8.84,8.66-1.33,1.61-2.62,3.42-4.06,5.72l-2.3,3.71,3.35,2.8.11.09c.15.13.3.27.46.39,2.13,1.71,2.75,4.73,1.35,6.6-.89,1.19-2.18,1.36-2.87,1.36-.57,0-1.15-.11-1.71-.33l-4.82-1.85-1.7,4.87c-1.53,4.4-2.9,8.93-4.4,13.97-3.37,11.3-6.85,22.98-13.19,33.22l-.83,1.34.09,1.57c.09,1.62-.8,2.93-2.22,3.25l-1.64.37-1.08,1.29c-2.11,2.52-4.12,4.65-6.15,6.52l6.39,7.68c7.82-5.88,15.59-11.39,23.51-16.98.67-.47,1.45-.71,2.31-.71,1.68,0,3.36.91,4.46,2.41.89,1.23,1.28,2.72,1.05,4.09-.13.77-.5,1.84-1.57,2.59-1.82,1.29-3.68,2.6-5.54,3.92l-34.85,24.7,39.61-15.98,16.32-6.59c6.81-2.75,14.52-5.86,22.8-6.67,1.54-.15,3.18-.23,4.86-.23,6.62,0,13.38,1.19,19.35,2.24l11.99,2.11,2.77.49,1.86-2.12c.44-.5.92-.85,1.47-1.05l58.99-21.73c.46-.17.95-.25,1.45-.25,2.11,0,4.21,1.48,5.12,3.58.57,1.34.61,2.73.1,3.91-.29.68-.9,1.59-2.14,2.04l-32.93,12.13-17.38,6.4,18.24,3.21,2.45.43c2.81.5,4.97,3.28,4.72,6.08-.19,2.14-1.81,3.63-3.92,3.63-.27,0-.56-.03-.84-.08l-51.98-9.16c-6.12-1.08-11.91-2.09-17.62-2.09-1.4,0-2.77.06-4.06.19-7.09.69-13.93,3.45-20.55,6.12l-70.36,28.38c-.47.19-.98.29-1.53.29-.23,0-.46-.02-.7-.05l-2.49-.36-1.77,1.78c-9.34,9.41-16.86,18.72-22.99,28.48l-2.99,4.75,5.07,2.42c.91.43,1.66,1.03,2.2,1.73,1.67,2.2,1.54,5.18-.3,6.64l-20.77,16.47,25.34-7.77,101.17-31.01c.4-.12.82-.18,1.25-.18,2.23,0,4.38,1.58,5.22,3.84.5,1.34.46,2.71-.1,3.84-.33.66-.98,1.53-2.26,1.92l-156.59,48-.82.25-.69.51-34.55,25.66-.5.37-.35.26-6.15,4.57,6.66,3.79c12.26,6.99,28.54,15.6,45.77,20.2,4.77,1.28,9.63,2.21,14.43,2.78l2.07.25,1.63-1.3c30.09-23.99,60-48.62,88.91-73.21.88-.75,1.89-.91,2.57-.91,1.53,0,3.08.76,4.17,2.04l.03.03h0c1.84,2.2,1.85,5.24,0,6.81-17.8,15.14-36.85,31-56.62,47.15l5.95,8.02c.65-.44,1.43-.67,2.26-.67,1.58,0,3.19.83,4.28,2.21.94,1.21,1.38,2.7,1.21,4.08-.1.78-.43,1.87-1.47,2.67-9.22,7.11-21.17,11.55-34.55,12.83l-10.79,1.04,7.79,7.53c6.89,6.67,14.43,12.74,22.39,18.05l3.59,2.39,2.89-3.2c.34-.37.63-.63.91-.78,26.13-14.46,45.2-36.98,65.42-60.83,15.74-18.58,32.01-37.79,51.81-52.53l2.18-1.61c4.58-3.35,9.31-6.82,12.21-11.37,2.68-4.21,3.77-10.58.65-14.6-.94-1.21-1.37-2.7-1.19-4.08.1-.78.44-1.87,1.48-2.67.86-.66,1.79-.79,2.42-.79,1.61,0,3.24.86,4.35,2.26,4.09,5.28,4.59,10.95,4.29,14.79l-.61,7.78,7.32-2.69c19.95-7.33,41.15-11.05,63.02-11.05,18.8,0,37.58,2.78,55.81,8.26,2.77.83,4.63,3.8,4.05,6.49-.4,1.87-1.91,3.08-3.84,3.08-.46,0-.94-.07-1.42-.22-17.25-5.18-35.07-7.81-52.95-7.81-5.25,0-10.55.23-15.75.69l-11.54,1.01,8.65,7.7c4.71,4.2,9.13,8.88,13.02,13.01,10.81,11.46,21.02,22.29,33.81,22.29h.27s.07,0,.07,0c2.74,0,5.27,2.4,5.54,5.24.12,1.28-.24,2.45-1,3.3-.5.56-1.41,1.23-2.87,1.25h-.41c-17.26,0-29.68-13.16-41.69-25.89-9.47-10.04-18.42-19.53-29.43-22.82-.11-.04-.21-.08-.32-.11l-1.38-.44-1.4.36c-14.56,3.79-28.37,9.43-41.06,16.76-.59.34-1.26.52-2,.52-.37,0-.75-.05-1.13-.13l-2.3-.54-1.88,1.43c-6.39,4.87-12.6,10.33-19.01,16.68l-4.61,4.57,5.59,3.29c7.06,4.16,13.82,9.28,19.78,13.81,3.48,2.64,6.77,5.14,10.19,7.55,12.83,9.06,24.31,13.65,34.11,13.65,2.05,0,4.06-.2,5.98-.6.29-.06.59-.09.89-.09,2.37,0,4.67,1.84,5.35,4.29.37,1.34.23,2.65-.41,3.69-.38.63-1.12,1.44-2.46,1.71-2.49.52-5.09.78-7.73.78-11.94,0-25.46-5.27-40.2-15.68-3.57-2.52-7.09-5.2-10.52-7.8-7.57-5.74-15.39-11.68-23.74-15.8l-3.41-1.68-2.53,2.83c-5.5,6.15-10.71,12.27-16.46,19.06-3.3,3.9-6.54,7.71-9.88,11.58l-4.21,4.87,5.76,2.87c19.27,9.6,40.4,15.62,61.1,17.39,2.81.24,5.17,2.85,5.17,5.71,0,2.35-1.66,4.06-3.93,4.06-.13,0-.27,0-.41-.02-23.96-2.05-48.3-9.46-70.39-21.4l-3.39-1.83-2.64,2.81c-13.2,14.07-25.11,24.3-37.51,32.19l-7.7,4.9,8.28,3.85c2.99,1.39,5.97,2.67,8.85,3.79,2.72,1.06,4.34,4.13,3.55,6.71-.52,1.68-1.95,2.72-3.75,2.72-.6,0-1.21-.12-1.82-.36-24.86-9.7-47.51-25.65-65.49-46.13l-.05-.05-.05-.05.03.03c-.52-.62-.91-1.37-1.15-2.23l-.87-3.09-3.17-.49c-4.09-.64-8.1-1.48-11.92-2.5-21.24-5.67-40.53-16.52-56.94-26.25l-2.66-1.58-2.6,1.67c-13.18,8.5-24.71,13.32-36.26,15.18l-2.06.33-1.21,1.7c-8.79,12.32-17.26,22.9-25.87,32.35l-7.13,7.82,10.57.54c2.31.12,4.62.38,6.86.77l2.53.44,1.83-1.8c.38-.37.74-.63,1.1-.78l54.01-23.25c.51-.22,1.05-.33,1.63-.33,2.03,0,4.05,1.34,5.02,3.33.63,1.31.74,2.76.29,3.97-.26.7-.82,1.64-2.03,2.15l-44.77,19.28-3.54,1.52.57,3.81c.12.82.07,1.54-.16,2.16-.52,1.43-1.83,2.32-3.41,2.32-.64,0-1.29-.15-1.93-.43-5.95-2.66-12.6-4.06-19.24-4.06-8.55,0-16.59,2.23-23.27,6.46-.55.35-1.21.53-1.95.53-.18,0-.36-.01-.55-.03l-2.03-.23-1.61,1.25c-2.68,2.08-5.41,4.09-8.12,5.96l-9.24,6.36,10.91,2.62c11.37,2.73,20.81,6.14,28.85,10.42l1.12.6h1.27c31.07-.28,60.11-14.96,77.69-39.26.91-1.25,2.24-1.44,2.95-1.44,1.06,0,2.14.39,3.06,1.11,2.16,1.68,2.82,4.71,1.45,6.61-2.33,3.22-4.96,6.4-7.84,9.47l-6.2,6.61,8.9,1.72c9.91,1.91,19.9,6.22,29.57,10.39,9.93,4.28,19.31,8.32,28.76,10.11,3.95.75,7.99,1.11,12.36,1.11,10.95,0,21.72-2.29,33.15-4.72,6.81-1.45,13.86-2.94,20.91-3.89,4.37-.59,8.68-.88,12.82-.88,9.19,0,17.8,1.45,25.6,4.3l2.71.99,2.22-1.85c17.07-14.27,34.38-27.91,51.47-40.55.85-.63,1.76-.76,2.38-.76,1.65,0,3.29.87,4.39,2.32.92,1.22,1.33,2.71,1.14,4.09-.11.77-.46,1.85-1.51,2.63-6.42,4.75-13.18,9.9-21.29,16.21l-4.84,3.76,4.66,3.98c14.74,12.6,33.9,19.83,52.56,19.83,5.39,0,10.69-.6,15.75-1.79.32-.08.66-.11,1-.11,2.35,0,4.59,1.75,5.33,4.16.41,1.34.29,2.67-.32,3.74-.37.64-1.08,1.46-2.4,1.77-5.61,1.32-11.5,1.99-17.51,1.99-22.6,0-45.45-9.19-62.69-25.21l-3.17-2.95-3.37,2.72-1.46,1.18c-2.48,2-5.03,4.06-7.54,6.12l-4.62,3.81,4.58,3.87c4.95,4.18,8.92,9.12,11.49,14.29.65,1.31.77,2.76.34,3.99-.25.7-.8,1.65-2,2.19-.52.23-1.09.35-1.69.35-2.01,0-4-1.31-4.97-3.27-2.58-5.19-6.6-9.61-11.94-13.14l-3.14-2.08-2.87,2.45c-.14.12-.27.23-.41.35-.18.15-.35.29-.52.44-.88.76-1.89.92-2.58.92-1.54,0-3.06-.74-4.18-2.05-.95-1.12-1.25-2.3-1.34-3.1l-.41-3.66-3.61-.7c-4.61-.89-9.48-1.35-14.46-1.35-3.61,0-7.24.24-10.78.72-6.73.9-13.3,2.3-20.25,3.77h-.06c-11.33,2.42-23.04,4.91-34.94,4.91-4.95,0-9.57-.42-14.12-1.28-10.58-1.99-20.95-6.47-31-10.8-12.58-5.42-24.47-10.54-35.65-10.54-3.69,0-7.22.56-10.5,1.67-.41.14-.86.21-1.31.21-.65,0-1.35-.15-2.02-.43l-2.28-.97-2.15,1.22c-10.02,5.67-20.81,9.67-32.08,11.87l-8.75,1.71,6.02,6.57c6.42,7.01,11.13,14.94,15.28,22.46l2.2,3.99,4.18-1.82c9.39-4.08,19.74-6.15,30.78-6.15,28.17,0,56.45,13.65,73.82,35.62.9,1.13,1.32,2.53,1.16,3.83-.09.73-.39,1.75-1.35,2.5-.8.62-1.68.75-2.28.75-1.43,0-2.9-.72-3.92-1.92l-.07-.08-.03-.03-.03-.03c-15.35-19.33-40.61-31.34-65.92-31.34-9.5,0-18.42,1.7-26.52,5.04l-5.32,2.2,2.91,4.96c3.99,6.78,9.59,15.31,17.64,21.17,4.35,3.16,9.26,5.49,14.46,7.95l.05.02h0c1.37.65,2.73,1.29,4.08,1.95,12.63,6.17,24.73,13.91,35.96,23l2.13,1.73,2.6-.87c.48-.16.95-.24,1.42-.24.23,0,.46.02.69.06,1.79.3,3.63.45,5.47.45,13.87,0,26.71-8.33,39.13-16.39l4.18-2.71c6.36-4.07,12.69-7.26,18.81-9.48l3.64-1.32-.37-3.86-1.53-16.02c-.12-1.28.23-2.45.99-3.3.5-.56,1.4-1.23,2.86-1.25h.08c2.73,0,5.27,2.39,5.54,5.23l1.18,12.38.45,4.67,4.69-.14c.46-.01.92-.02,1.38-.02,7.65,0,14.71,2.04,20.98,6.05,2.46,1.57,3.47,4.79,2.19,7.02-.69,1.21-1.93,1.9-3.4,1.9-.96,0-1.93-.3-2.81-.87-4.42-2.83-9.59-4.27-15.36-4.27-12.24,0-24.87,6.44-33.33,11.86l-4.12,2.66-.46.29-.41.26-4.28,2.77,2.85,4.22c8.86,13.11,19.46,24.6,30.68,36.78,5.37,5.82,10.92,11.85,16.23,18.04.3.35.59.69.88,1.04l.03.04c22.02,25.96,33.37,49.47,34.71,71.89.07,1.24-.31,2.37-1.07,3.18-.51.54-1.42,1.18-2.86,1.18h-.11c-1.51-.04-2.99-.78-4.06-2.05-.82-.97-1.31-2.16-1.39-3.36-1.19-19.91-11.63-41.22-31.92-65.14-.29-.35-.59-.7-.89-1.04-.85-.99-1.73-1.97-2.58-2.93-.41-.46-.83-.92-1.23-1.39l-8.08-9.14-.66,12.18c-.68,12.58-4.11,24.6-9.9,34.76-.69,1.21-1.93,1.9-3.41,1.9-.96,0-1.93-.3-2.81-.86-.51-.32-.96-.72-1.35-1.18-1.47-1.74-1.82-4.14-.85-5.84,8.16-14.29,10.93-32.23,7.6-49.21-.08-.43-.09-.92-.03-1.52l.25-2.24-1.51-1.67c-7.44-8.23-16.05-18.15-23.52-29.29l-2.5-3.73-3.97,2.09c-6.6,3.47-12.62,5.68-18.39,6.78l-8.93,1.69,6.21,6.63c10.94,11.7,20.34,24.55,27.92,38.2.68,1.22.86,2.6.5,3.78-.2.67-.67,1.58-1.74,2.12-.52.27-1.1.4-1.72.4-1.81,0-3.61-1.12-4.57-2.85-14.01-25.23-34.19-47.08-58.36-63.19l-8.39-5.6.63,10.07c.18,2.89-.12,5.65-.9,8.2-.48,1.56-1.81,2.53-3.49,2.53-.56,0-1.13-.11-1.69-.33-.85-.33-1.62-.88-2.22-1.59-1.17-1.38-1.61-3.19-1.14-4.71,1.97-6.44-1.06-14.52-6.88-18.4-1.05-.7-1.85-1.77-2.24-3.02l-.64-2.05-1.92-.95c-3.54-1.74-7.7-3.91-11.7-6.82-12.76-9.27-20.11-22.98-27.22-36.23-5.35-9.96-10.41-19.37-17.55-27-3.79-4.05-8.15-7.56-13.33-10.73l-1.11-.68-1.3-.05c-.35-.01-.7-.02-1.06-.03-.36,0-.72-.01-1.08-.03-1.36-.08-2.69-.78-3.65-1.92-.19-.23-.39-.51-.59-.86l-.84-1.46-1.56-.65c-13.19-5.53-28.23-8.37-42.52-10.61l-1.41-.22-1.32.56c-2.78,1.18-5.39,2.19-7.97,3.08l-2.9,1-.42,3.04c-.04.32-.1.57-.17.78-5.63,16.56-.29,37.14,13,50.04,1.63,1.58,2.14,4,1.23,5.75l-2.13,4.07,3.88,2.47c6.46,4.12,12.81,8.53,18.86,13.12,3.25,2.46,6.53,5.06,9.7,7.58l.34.27c10.48,8.32,20.38,16.18,31.67,21.52,5.03,2.38,10.21,4.2,15.7,6.13l.06.02c2.7.95,5.35,1.88,7.99,2.88l.06.02.06.02s.06.02.09.03c.02.01.05.02.08.03h.03s.03.02.03.02c3.22,1.23,5.89,2.35,8.4,3.54,24.32,11.51,43.59,34.81,50.29,60.81.38,1.49.07,2.96-.85,3.93-.66.7-1.61,1.09-2.65,1.09-.33,0-.66-.04-1-.11l-6.96-1.57c-2.63-.59-4.55-3.29-4.19-5.88.18-1.29.85-2.04,1.38-2.45l3.16-2.38-1.6-3.63c-7.74-17.56-21.86-32.46-38.73-40.87l-5.02-2.5-1.91,5.28c-2.34,6.46-5.17,12.82-8.41,18.9l-1.6,2.99,2.19,2.59,37.86,44.78.71.83.99.46c.14.07.29.13.44.19,22.68,12.12,47.78,19.99,72.61,22.76,2.64.29,4.81,2.79,4.74,5.47-.06,2.15-1.55,3.66-3.64,3.66-.16,0-.33,0-.5-.03-3.45-.38-7.2-.93-11.48-1.66l-13.58-2.32,8.92,10.49c8.87,10.43,14.92,22.72,17.49,35.54.26,1.32.03,2.58-.67,3.54-.43.6-1.24,1.35-2.63,1.52-.18.02-.37.03-.55.03-1.52,0-3.08-.77-4.17-2.05-.65-.77-1.1-1.68-1.29-2.64-3.55-17.72-15.45-34.63-31.06-44.14-1.59-.97-2.65-2.64-2.82-4.46l-.3-3.19-3.03-1.05c-.4-.14-.8-.27-1.19-.4-.48-.16-.95-.32-1.43-.49l-11.61-4.2,5.41,11.09c5.26,10.78,5.59,19.61,1.02,26.99-.65,1.05-1.77,1.65-3.09,1.65-.95,0-1.92-.31-2.78-.91-.42-.29-.8-.63-1.13-1.02-1.43-1.68-1.73-3.98-.73-5.58,4.76-7.69.66-19.29-12.18-34.48l-42.74-50.55-4.17-4.93-3.73,5.27c-15.21,21.5-35.53,38.26-58.77,48.49-.48.21-1,.32-1.55.32-1.43,0-2.9-.72-3.92-1.92-.3-.36-.56-.76-.77-1.18-.61-1.23-.71-2.59-.3-3.73.24-.65.75-1.52,1.86-2.01,23.79-10.47,44.15-27.93,58.87-50.48l1.4-2.14-.92-2.39c-.71-1.83-.35-3.7.9-4.77.55-.47,1.23-.74,2.02-.8l2.76-.24,1.26-2.47c2.52-4.93,4.74-10,6.61-15.09l1.75-4.76-4.78-1.68c-5.17-1.82-10.22-3.65-15.25-6.03-12.43-5.88-23.3-14.52-33.82-22.87-3.48-2.76-6.62-5.25-9.81-7.67-15.45-11.72-32.11-21.73-49.51-29.76-5.66-2.61-11.8-4.11-16.84-4.11-2.47,0-4.61.37-6.36,1.11-2.4,1.01-3.91,2.66-4.62,5.05-.39,1.3-1.29,1.93-1.97,2.22l-2.97,1.28-.05,3.24c-.08,4.59.13,8.81.64,12.9.15,1.21-.15,2.32-.84,3.14-.45.53-1.26,1.17-2.6,1.23-.06,0-.13,0-.19,0-1.43,0-2.89-.72-3.91-1.93-.71-.83-1.15-1.82-1.27-2.85-5.04-40.57,15.31-77.04,35-112.32.87-1.56,1.72-3.1,2.57-4.65.55-1,1.1-2,1.66-3.01l2.27-4.1-3.95-2.53-.12-.07c-11.47-7.55-22.85-16.28-33.81-25.94l-1.74-1.53-2.29.34c-.21.03-.42.05-.63.05-1.43,0-2.88-.7-3.88-1.88-.54-.64-.92-1.36-1.14-2.15-.21-.76-.39-1.52-.58-2.28-.1-.42-.2-.83-.31-1.25l-.34-1.37-1.01-.99c-8.6-8.4-16.83-17.39-24.46-26.73l-.33-.4-.4-.33c-9.21-7.44-22.12-9.66-34.6-11.81l-3.64-.64c-18.1-3.2-31.22-9.47-39-18.64-2.17-2.56-3.96-5.4-5.32-8.43-.55-1.24-.61-2.58-.15-3.68.26-.63.81-1.48,1.95-1.93.44-.17.92-.26,1.41-.26,1.98,0,3.89,1.32,4.77,3.29,4.57,10.24,16.79,17.19,36.34,20.64l3.58.62c3.41.59,6.74,1.17,10.07,1.85l11.76,2.4-6.58-10.04c-8.86-13.51-16.75-27.85-23.46-42.64l-2.21-4.88-4.72,2.55c-.56.3-1.21.47-1.86.47-.54,0-1.1-.11-1.64-.32-19.49-7.64-37.76-19.68-52.85-34.82-3.23-3.24-6.37-6.66-9.58-10.46-10.51-12.4-19.48-26.02-28.15-39.19l-34.29-52.1-1.76-2.68-3.17.48c-6.7,1.02-13.47,1.54-20.13,1.54-.58,0-1.17,0-1.75-.01-1.43-.02-2.83-.72-3.86-1.93-.76-.9-1.23-2.01-1.3-3.12-.08-1.17.27-2.23.98-3,.47-.51,1.32-1.11,2.67-1.11h.06c.43,0,.86,0,1.29,0,3.44,0,7.04-.17,11.32-.55l8.35-.73-4.61-7-6.36-9.66c-.78-1.19-1.07-2.58-.8-3.83.15-.69.54-1.65,1.57-2.29.58-.36,1.24-.55,1.97-.55,1.69,0,3.35.95,4.36,2.48l10.52,15.98,1.96,2.99,3.46-.89c12.09-3.12,23.43-7.94,33.68-14.32l5.94-3.7-5.42-4.42c-26.02-21.24-57.51-38.49-91.06-49.89-2.69-.91-5.43-1.77-8.09-2.59l-1.26-.39-8.43-2.62,2.09,8.58c.19.77.37,2.25-.52,3.49-11.5,16.09-30.49,26.19-50.8,27.02-.06,0-.12,0-.18,0-1.43,0-2.89-.72-3.92-1.93-.71-.83-1.15-1.83-1.28-2.87-.15-1.2.16-2.32.85-3.13.45-.53,1.26-1.17,2.6-1.22,17.97-.74,34.8-9.67,45.08-23.9.11-.12.22-.24.32-.37l4.84-5.94-7.39-2.04c-9.42-2.6-18.95-5.03-28.7-7.49l-1.96-.5-3.16-.8-2.01,2.56c-9.4,12-24.42,19.16-40.18,19.16-1.09,0-2.19-.03-3.27-.1-1.35-.08-2.68-.78-3.64-1.92-.82-.97-1.29-2.16-1.31-3.35-.02-1.11.35-2.12,1.04-2.83.47-.48,1.3-1.05,2.61-1.05.09,0,.19,0,.28,0,.87.05,1.76.08,2.63.08,9.33,0,18.68-3.08,26.34-8.68l8.42-6.15-10.07-2.71c-30.48-8.21-62.61-18.58-91.11-38.75-.42-.3-.8-.65-1.13-1.04-1.54-1.82-1.85-4.29-.74-6.01.71-1.1,1.91-1.73,3.3-1.72,1.05,0,2.1.35,3.04,1.02,10.2,7.22,21.35,13.46,34.1,19.09l3.74,1.65,2.36-3.34c.44-.63,1.04-1.06,1.78-1.29,35.61-11.08,67.05-31.89,90.91-60.19l2.53-3-2.31-3.17c-6.39-8.77-10.78-16.9-13.42-24.88l-1.83-5.54-5.2,2.66c-15.42,7.9-29.45,17.69-41.71,29.12-5.23,4.87-10.22,12.29-7.08,17.17.34.52.69.96.97,1.31l.14.17c1.42,1.8,3.36,4.27,3.67,7.61.16,1.74-.37,3.44-1.5,4.76-1.15,1.36-2.79,2.18-4.61,2.31-.16.01-.31.02-.47.02-1.97,0-3.87-.9-5.2-2.47-.77-.91-1.31-2.01-1.56-3.18-.23-1.11-.08-2.2.42-3.06l1.4-2.39-1.28-2.46c-.15-.29-.3-.63-.47-1.02l-.03-.08-1.48-3.4-3.69.43c-5.3.62-10.74.94-16.18.94-13.37,0-26.69-1.87-39.59-5.55-1.02-.29-1.94-.89-2.66-1.74-1.07-1.26-1.53-2.87-1.24-4.32.36-1.78,1.76-2.92,3.57-2.92.41,0,.84.06,1.26.18,12.17,3.47,24.7,5.23,37.24,5.23,6.23,0,12.44-.45,18.43-1.32.03,0,.1,0,.32,0h.14s.17,0,.17,0h3.14l1.36-2.83c1.77-3.66,4.53-7.26,8.2-10.68,1.28-1.2,2.66-2.44,4.22-3.81l5.04-4.42-5.67-3.57c-13.15-8.27-27.19-14.59-41.72-18.77-1.01-.29-1.92-.89-2.64-1.73-1.07-1.26-1.53-2.88-1.24-4.33.36-1.77,1.76-2.91,3.57-2.91.42,0,.84.06,1.27.19,17.75,5.1,34.7,13.15,50.38,23.92l2.89,1.98,2.85-2.04c2.73-1.96,5.63-3.9,8.86-5.95l4.85-3.08-3.72-4.38-31.34-36.94c-.9-1.06-1.37-2.35-1.32-3.63.03-.65.23-1.87,1.27-2.76.82-.69,1.75-.84,2.38-.84,1.43,0,2.9.72,3.92,1.92l32.92,38.81v.02c.11.15.21.31.32.46l2.51,3.46,3.81-1.94c13.35-6.82,27.49-12.09,42.02-15.68l5.07-1.25,1.61,4.64c.04.12.09.25.14.37.32,1.19.21,2.36-.33,3.31-.34.59-.99,1.36-2.21,1.65-7.98,1.93-16.05,4.48-23.98,7.57l-4.14,1.61,1.11,4.3c4.21,16.29,16.36,30.24,27.07,42.55l46.1,53.01.65.75.89.44c.77.38,1.82,1.11,2.5,2.45.1.18.2.49.3.79l.32.94.65.75,13.95,16.04,6.06,6.97,2.52-8.89c1.69-5.96,3.99-11.49,6.84-16.42.64-1.11,1.79-1.74,3.15-1.74.9,0,1.82.28,2.66.83,2.31,1.49,3.25,4.5,2.04,6.59-11.82,20.49-11.88,48.25-.17,70.72l.57,1.09,1.01.7c15.5,10.77,29.65,22.84,42.05,35.89l10.34,10.87-1.75-14.9-10.22-87.12c-1.58-13.47-3.22-27.39-8.01-40.25-6.3-16.93-18.04-32.98-38.05-52.02-22.59-21.49-47.81-39.95-74.94-54.87l-.98-.54.38-.09-5.88-2.93-4.91-2.7.11.31-1.49-.74c-3.31-1.65-7.25-3.59-11.38-5.46-2.51-1.14-3.88-4.08-3.01-6.42.54-1.44,1.81-2.3,3.41-2.3.65,0,1.31.15,1.96.44,21.53,9.79,42.45,21.92,62.16,36.06l3.17,2.27,2.98-2.52c.46-.39,1.25-.86,2.37-.86.12,0,.25,0,.37.02,6.22.54,13.44,1.12,20.47,1.12,6.63,0,12.41-.51,17.69-1.57,11.22-2.24,21.71-7.38,30.34-14.87l4.21-3.65-4.09-3.79c-16.9-15.66-33.02-32.49-47.88-50.02-8.44-9.95-16.66-20.34-24.43-30.87-.9-1.23-1.3-2.72-1.08-4.09.12-.77.49-1.84,1.55-2.6.67-.48,1.46-.73,2.32-.73,1.66,0,3.33.9,4.47,2.41,20.84,28.26,44.52,54.77,70.39,78.79l4.59,4.26,3.06-5.28.06-.1c.64-1.06,1.76-1.67,3.09-1.67.55,0,1.1.1,1.65.31l5.03,1.87-6.92,14.94c-.18.4-.36.69-.53.89-.54.64-1.26,1.05-2.14,1.23l-1.51.3-1.08,1.1c-2.25,2.31-4.6,4.43-6.99,6.31l-9.81,7.73,12.44,1.17c3.95.37,8.01.55,12.42.55,1,0,2.01,0,3.01-.03l5.52-.1-.65-5.49c-.45-3.81-.84-7.84-1.16-11.96l-1.24-16.15.35.13v-7.2c0-47.2,10.75-95.39,31.96-143.23.58-1.31,1.82-2.09,3.32-2.09.74,0,1.49.19,2.22.57,2.44,1.26,3.66,4.24,2.66,6.49-18.58,41.93-29,84.14-30.95,125.48l-.35,7.36,6.97-2.4c19.45-6.69,37.88-17.09,53.28-30.08.88-.74,1.88-.9,2.56-.9,1.53,0,3.09.76,4.19,2.06,1.54,1.83,1.82,4.31.67,6.03l-2.16,3.25,2.62,2.89c13.42,14.78,14.63,34,15.8,52.62.93,14.73,1.8,28.64,8.12,40.46,3.53,6.61,8.99,12.67,13.8,18.02l8.21,9.13.5-12.27.44-10.78.1-2.4.07-1.62.06-1.42-.7-1.24c-.32-.58-.53-1.07-.63-1.51-.32-1.39-.06-2.73.74-3.77l.95-1.23.08-1.56c.73-13.94,1.78-24.5,3.4-34.23l.31-1.88-1.01-1.61c-21.23-33.73-32.53-65.85-33.58-95.47-.79-22.19,3.99-43.38,8.61-63.87.42-1.85,1.92-3.04,3.83-3.04.48,0,.97.08,1.46.23,2.77.86,4.6,3.84,4,6.52-4.49,19.91-9.13,40.51-8.39,61.45.8,22.67,8.19,47.22,21.96,72.95l5.41,10.11,3.73-10.84c5.12-14.88,12.73-29.24,23.27-43.88l2.22-3.08-2.37-2.96c-15.87-19.83-21.56-46.95-14.5-69.08.62-1.95,2.33-2.64,3.71-2.64.39,0,.79.05,1.19.15l5.59,1.4-2.14,8.25c-4.35,16.75-.47,36.85,10.12,52.45l3.71,5.47,4.25-5.05c4.01-4.76,8.24-9.51,12.94-14.5l3.09-3.28-2.94-3.41-.39-.45c-.19-.22-.38-.44-.57-.66-7.98-9.41-15.02-20.03-20.92-31.58l-3.87-7.57-3-7.71c-3.5-9.02-6.13-18-7.81-26.7-.26-1.31-.01-2.56.69-3.52.44-.6,1.25-1.34,2.65-1.51.17-.02.35-.03.53-.03,2.55,0,4.94,2.07,5.45,4.73,4.68,24.19,16.35,48.32,32.86,67.92l3.5,4.16,3.85-3.83c5.67-5.64,11.28-11.06,17.51-17.06,32.85-31.65,63.87-61.54,77.77-103.06.5-1.5,1.82-2.43,3.45-2.43M370.37,362.39l4.12-8.94c6.89-14.93,15.33-29,25.1-41.82.98-1.29,2.38-1.48,3.12-1.48,1.17,0,2.37.45,3.38,1.27,2.25,1.82,2.87,5.04,1.36,7.03-11.27,14.8-20.63,31.12-27.82,48.53-.15.36-.4.72-.76,1.11l-2.73,2.95,2.29,3.3c3.43,4.94,6.64,9.26,9.8,13.19,5.19,6.44,10.69,12.68,16.53,19.29l.18.21c9.29,10.5,18.9,21.36,26.88,32.97l8.5,12.36.62-14.99,1.31-31.95.16-3.8-3.62-1.16c-.98-.31-1.84-.89-2.49-1.65-.13-.15-.25-.31-.36-.48-.81-1.17-1.13-2.57-.88-3.83.14-.7.51-1.68,1.52-2.34,1.34-.88,2.75-1.74,4.08-2.54l2.32-1.39.11-2.7,1.41-34.39.06-1.46-.74-1.26c-.22-.37-.38-.72-.49-1.05-.49-1.47-.28-2.98.55-4.04l1-1.27.07-1.61.4-9.67.06-1.5-.77-1.28c-3.44-5.72-8.24-11.06-12.89-16.23-5.01-5.58-10.19-11.34-14.23-17.96l-.93-1.52-1.68-.59c-.14-.05-.27-.09-.39-.12-3.54-1.32-7.27-1.98-11.12-1.98-5.39,0-10.55,1.33-14.91,3.85-.61.35-1.29.53-2.03.53-1.53,0-3.09-.76-4.17-2.04-.21-.24-.39-.5-.55-.76-.79-1.28-1.05-2.76-.72-4.06.19-.74.64-1.75,1.77-2.4,5.52-3.19,12.05-4.87,18.91-4.87.91,0,1.84.03,2.76.09l6.69.44-1.48-6.53c-2.11-9.29-2.73-19.25-3.28-28.03v-.08c-1.12-17.68-2.17-34.37-13.22-46.05-.09-.12-.18-.23-.28-.34l-2.94-3.31-3.64,2.53c-15.57,10.8-32.61,18.95-50.64,24.23l-3.69,1.08.09,3.84c.06,2.48.13,5.14.27,7.81,2.12,42.05,13.63,82.95,33.28,118.28l4.78,8.6M252.09,266.13c-1.48,0-3.05-.02-4.65-.07l-14.35-.43,10.97,9.25c6.61,5.58,12.01,10.37,16.98,15.1,4.29,4.08,8.09,7.91,11.62,11.69l2.74,2.94,3.46-2.04c.57-.34,1.25-.52,1.95-.52.75,0,1.5.2,2.23.59,16.44,8.79,33.78,16.95,51.52,24.26l10.6,4.36-4.01-10.74c-5.68-15.22-10.11-31.28-13.16-47.73l-.78-4.19-4.26.11c-1.24.03-2.51.05-3.75.05-11.45,0-22.88-1.32-33.98-3.94-.81-.19-1.59-.59-2.25-1.17l-2.09-1.81-2.64.81c-2.36.72-4.71,1.31-6.98,1.77-5.78,1.15-12.04,1.72-19.16,1.72M127.24,372.09c-.82,0-1.66-.24-2.44-.69-4.79-2.8-9.28-6.58-12.98-10.95-1.16-1.37-2.31-2.89-3.41-4.54l-2.57-3.82-4.02,2.25c-7.88,4.41-16.08,8.3-24.36,11.57l-12.88,5.09,13.16,4.31c16.49,5.4,33.24,9.64,50.98,14.12,18.35,4.64,37.33,9.44,55.58,15.64,18.2,6.18,35.84,14.02,52.44,23.31l9.65,5.4-2.32-10.81c-1.34-6.23-2.01-12.49-2-18.63l-.02-2.3-1.72-1.5c-.23-.2-.47-.41-.57-.52l-21.43-24.64-2.2-2.53-3.18,1.08c-7.79,2.65-16.12,3.99-24.75,3.99-10.95,0-22.06-2.24-32.12-6.48-.79-.33-1.51-.86-2.07-1.53-1.21-1.42-1.63-3.28-1.1-4.83.5-1.49,1.82-2.41,3.44-2.41.61,0,1.22.13,1.83.39,8.92,3.76,18.77,5.74,28.47,5.74,5.01,0,9.98-.52,14.77-1.55l8.28-1.78-5.56-6.39-39.11-44.97c-.46-.53-.94-1.09-1.43-1.65-.36-.42-.72-.84-1.08-1.25l-3.77-4.36-3.78,4.34c-11.17,12.82-23.95,24.18-38,33.76l-4.14,2.82,2.83,4.13c3.31,4.84,7.62,8.88,12.45,11.7,2.38,1.39,3.46,4.4,2.36,6.56-.62,1.21-1.8,1.91-3.24,1.91M314.64,424.09l.81,6.87,7.47,63.63c.11.94-.06,1.82-.52,2.59l-1.66,2.84,1.95,2.65c10.21,13.86,18.51,28.42,24.68,43.26,5.46,13.14,9.47,26.79,13.35,40l.02.06c2.43,8.28,4.95,16.85,7.78,25.11,11.95,34.88,31.49,68.77,56.5,98.03l10.44,12.21-1.67-15.98c-2.2-21.04-1.91-41.92-1.34-59.56l.07-2.25-1.64-1.55c-4.25-4.01-8.31-8.29-12.08-12.73-13.58-16.01-24.91-35.35-33.67-57.47-12.81-32.36-19.01-67.68-23.99-96.06l-.26-1.5-1.06-1.1c-6.11-6.35-11.99-12-17.98-17.3-2.04-1.79-2.5-4.8-1.02-6.57.91-1.08,2.14-1.24,2.79-1.24,1.18,0,2.36.47,3.34,1.34,6.42,5.67,12.88,11.9,19.22,18.51l.34.35.4.28c.7.49,1.25,1.08,1.65,1.74l.28.47.37.4c20.48,21.88,38.11,45.76,58.27,74.88l8.49,12.27.61-14.91,2.79-67.97.03-.76-.19-.73c-5.97-22.47-22.69-41.36-40.38-61.35-2.09-2.36-4.2-4.78-6.31-7.2l-4.29-4.92-3.63,5.42c-10.04,15.01-27.87,24.33-46.53,24.33-3.57,0-7.16-.34-10.67-1.01-1.1-.21-2.13-.8-2.93-1.68-.05-.07-.11-.15-.18-.24l-2.21-2.73,1.43-2.61c.63-1.14,1.81-1.82,3.16-1.82.28,0,.56.03.84.08,2.9.55,5.89.83,8.88.83,18.24,0,35.71-10.55,43.48-26.26l1.39-2.81-1.92-2.47c-10.81-13.9-20.3-29.27-28.23-45.67l-1.19-2.45-2.71-.33c-.48-.06-.84-.14-1.14-.25-15.57-5.95-31.4-12.84-47.08-20.5l-15.48-7.56,9.03,14.67c3.92,6.37,7.07,12.73,9.37,18.92,5.23,14.05,6.94,28.59,8.6,42.68l3.65,31.12.47,4.02M315.12,599.21l2.24-8.93c5.7-22.7-4.35-49.72-23.92-64.25-2.2-1.63-2.94-4.66-1.61-6.61.9-1.32,2.27-1.52,3-1.52,1.03,0,2.05.36,2.96,1.03,24.18,17.95,35.74,50.67,27.49,77.8-.23.77-.67,1.39-1.28,1.84l-5.25,3.83,5.05,4.09c9.71,7.88,20.32,14.43,31.54,19.48l10.89,4.9-4.15-11.2c-.24-.65-.48-1.3-.73-1.95-.62-1.66-1.21-3.22-1.76-4.81-2.94-8.59-5.49-17.26-7.96-25.68-3.96-13.5-7.71-26.24-12.93-38.8-10.54-25.35-27.1-49.01-49.23-70.32l-2.93-2.82-3.36,2.29c-10.59,7.24-22.36,12.83-34.97,16.62l-6.42,1.93,3.69,5.6,30.72,46.69c9.42,14.31,20.1,30.54,32.65,44.03l6.27,6.74M432.9,633.24l.53-12.88,2.03-49.45.14-3.45-3.17-1.36c-.82-.35-1.51-.85-2.05-1.49-.13-.15-.25-.31-.36-.47-14.49-21.08-29.47-42.88-45.91-63.3l-12.77-15.87,3.98,19.98c5.32,26.74,10.87,46.69,17.99,64.69,10.19,25.73,22.65,43.42,31.31,53.72l8.29,9.87M589.21,679.75l6.61-1.69c6.52-1.67,12.46-3.06,18.18-4.27.27-.06.56-.09.84-.09,2.22,0,4.38,1.73,5.03,4.03.35,1.25.22,2.47-.37,3.45-.35.58-1.03,1.33-2.27,1.6-27.92,5.89-55.22,14.55-81.15,25.75-.29.13-.65.21-1.1.26l-2.9.31-1.16,2.67c-.27.62-.61,1.08-1.05,1.41-.19.14-.48.29-.89.44l-2.1.79-.81,2.09c-.95,2.46-1.95,4.99-3.07,7.74l-3.52,8.71,9.2-1.95c1.72-.36,3.55-.55,5.46-.55,3.35,0,6.79.58,9.71,1.64,5.73,2.08,10.35,3.14,13.71,3.14,1.08,0,2.03-.11,2.84-.33l2.39-.64.94-2.29c.56-1.37,1.82-2.19,3.36-2.19.66,0,1.32.15,1.97.45,2.5,1.15,3.88,4.09,3,6.42-1.97,5.23-6.03,7.66-12.78,7.66-4.66,0-10.4-1.23-17.05-3.65-2.4-.87-4.82-1.06-6.41-1.06-1.91,0-3.78.25-5.26.71l-3.76,1.17.26,3.93c.13,2.03-1.02,3.63-2.87,4-.24.05-.49.07-.73.07-1.19,0-2.46-.56-3.48-1.53l-5.04-4.75-2.93,6.28c-4.52,9.68-9.26,19.12-14.09,28.06-2.85,5.26-5.86,10.66-8.52,15.42-3.02,5.41-6.22,11.17-9.3,16.89l-4.58,8.51,9.59-1.18c9.47-1.16,18.49-3.57,27.56-7.36l.83-.35.66-.62c.58-.54,1.31-.87,2.11-.94l.9-.08.81-.39c25.64-12.25,51.61-36.28,77.19-71.42l.94-1.29.02-1.59c.02-1.79,1.01-3.23,2.58-3.76l1.57-.53.94-1.36.79-1.14c.72-1.03,1.43-2.06,2.16-3.13,2.9-4.29,5.7-8.48,9.06-13.52,22.14-33.19,45.03-67.5,76.52-90.3l2.92-2.11-1.08-3.44c-4.02-12.79,2.2-26.91,6.31-36.25l3.01-6.83,8.09-18.37-15.76,12.43c-15.79,12.45-28.55,28.54-42.07,45.58-17.1,21.56-34.78,43.85-58.89,56.96l-2.54,1.38-.06,2.9c0,.19-.02.37-.04.55-.02.24-.04.48-.05.72l-.38,6.81M710.77,590.7c-.83,0-1.71-.31-2.48-.87l-5.43-3.95-2.23,6.34c-1.74,4.94-2.68,9.12-2.87,12.76l-.48,8.98,7.88-4.33c5.29-2.91,10.26-5.27,15.19-7.24.45-.18.94-.27,1.44-.27,1.96,0,3.87,1.31,4.75,3.26.56,1.24.63,2.58.18,3.69-.26.64-.8,1.49-1.93,1.94-20.36,8.1-39.21,21.89-57.63,42.17-15.77,17.36-29.2,36.95-43.87,58.92l-11.47,17.17,18.05-10.02c1.22-.68,2.54-1.45,4.03-2.35l2.53-1.53-.13-2.96c-.04-.85.12-1.61.47-2.27.66-1.26,1.91-1.98,3.42-1.98.67,0,1.35.14,2.01.43l2.6,1.12,2.3-1.66c2.72-1.96,5.36-3.91,7.83-5.75l18.8-13.96,2.31-1.72-.32-2.86c-.2-1.76.54-3.82,2.64-4.46l12.02-3.68.82-.25.69-.51,25.55-18.97,1.23-.92.51-1.45c9.52-27.29,28.67-51.78,60.27-77.07l-5.87-8.08c-17.66,11.63-40.36,17.36-62.1,22.24-.23.05-.47.08-.71.08M477.96,827.08c-.43,0-.95-.1-1.57-.32l-4.26-1.47-1.91,4.08c-5.1,10.91-8.82,20.72-11.36,30l-2.05,7.49,7.67-1.23c1.47-.24,3.05-.36,4.7-.36,6.39,0,13.95,1.8,20.74,4.93,1.84.85,3.78,1.78,6.08,2.91l13.65,6.72-7.01-13.51c-5.71-11-8.09-23.4-6.72-34.92l.78-6.54-6.51,1c-4.1.63-8.18,1.04-12.13,1.21h-.11M622.97,144.24c1.65,0,3.32.86,4.45,2.3.91,1.21,1.33,2.69,1.13,4.07-.11.77-.46,1.86-1.51,2.64-10.16,7.58-16.69,20.56-18.4,36.56l-.22,2.07,1.32,1.62c1.6,1.96,1.74,4.67.36,6.27-.07.06-.15.14-.24.22l-1.64,1.59.13,2.28c.44,7.99,1.82,16.69,4.33,27.39l1.53,6.53,5.82-3.33c11.46-6.56,22.63-10.84,34.13-13.09.28-.05.56-.08.84-.08,2.4,0,4.71,1.87,5.38,4.35.36,1.34.2,2.64-.45,3.68-.39.62-1.14,1.42-2.48,1.69-12.58,2.46-24.87,7.61-37.59,15.74l-2.32,1.49.02,2.76c.01,2.07-1.19,3.65-3.07,4.02-.24.05-.49.07-.75.07-.53,0-1.1-.1-1.68-.3l-2.55-.87-2.13,1.66c-2.75,2.14-5.33,4.24-7.89,6.43l-2.44,2.09.89,3.09c1.91,6.64,3.05,13.51,3.37,20.42l.31,6.6,6.27-2.09c3.79-1.26,7.54-2.15,11.15-2.63,4.51-.61,9.32-.87,13.97-1.12,14.26-.78,29.01-1.58,34.29-12.48.65-1.34,1.97-2.13,3.53-2.13.84,0,1.71.24,2.52.69,2.55,1.43,3.75,4.62,2.61,6.97-7.23,14.9-25.09,15.87-40.84,16.73-4.47.24-9.09.49-13.29,1.05-7.63,1.02-14.92,3.67-21.67,7.87l-.54.34-.44.46c-.4.42-.85.73-1.35.92l-.61.24-.53.39c-9.81,7.15-17.19,17.39-20.8,28.84l-4.85,15.41c-1.33-2.54-2.77-5.03-4.3-7.46l-.2-.32-.25-.29s-.06-.07-.1-.11c-.25-.31-.49-.71-.73-1.23l-.15-.32-.2-.29c-4.47-6.68-9.62-12.83-15.3-18.28-2.12-2.03-2.47-5.17-.78-6.99.92-1,2.08-1.21,2.89-1.21,1.34,0,2.67.56,3.74,1.58,2.08,2,4.21,4.23,6.69,7.02l4.9,5.52,3.31-6.6c4.44-8.86,10.98-16.73,18.92-22.77l1.7-1.29.25-2.12c1.36-11.74-.13-23.98-4.32-35.39-.69-1.87-.31-3.81.95-4.95,5.1-4.59,10.19-8.77,15.56-12.79l2.68-2.01-.84-3.25c-3.48-13.46-6.7-27.99-6.72-43.13v-2.07s-1.47-1.46-1.47-1.46l-27.76-27.68c-.11-.11-.23-.23-.34-.37-1.74-2.05-1.86-4.94-.28-6.58.92-.95,2.05-1.15,2.83-1.15,1.37,0,2.76.61,3.82,1.67l17.67,17.61,6.06,6.04,2.29-8.25c3.53-12.76,10.14-23.03,19.09-29.71.66-.49,1.45-.74,2.33-.74M554.87,184.76c2.62,0,5.08,2.21,5.5,4.94.2,1.3-.09,2.52-.82,3.43-.46.58-1.31,1.3-2.74,1.4l-62.24,4.59c-.11,0-.23.01-.34.01-1.52,0-3.08-.77-4.17-2.05-.67-.79-1.12-1.71-1.3-2.69,0-.09-.02-.19-.03-.29l-.52-3.75,3.36-.85c.24-.06.54-.13.72-.14l62.24-4.59c.11,0,.22-.01.34-.01M475.14,221.71c.56,0,1.12.1,1.68.31,8.82,3.24,17.98,4.88,27.25,4.88,7.11,0,14.07-.98,20.67-2.92.39-.11.79-.17,1.2-.17,2.23,0,4.43,1.64,5.24,3.9.48,1.34.43,2.7-.14,3.82-.33.66-1,1.52-2.29,1.9-7.35,2.16-15.11,3.25-23.06,3.25-10.43,0-20.76-1.85-30.69-5.49-.92-.34-1.76-.92-2.42-1.7-.07-.1-.14-.21-.2-.32-.08-.14-.17-.28-.26-.41l-3.48-5.45,5.36-1.44c.36-.1.74-.15,1.13-.15M617.17,2.5c-3.67,0-6.97,2.19-8.19,5.84-13.51,40.36-44.11,69.84-76.5,101.05-5.86,5.65-11.75,11.33-17.57,17.11-15.9-18.89-27.2-41.99-31.78-65.65-.97-5.05-5.48-8.78-10.36-8.78-.37,0-.74.02-1.11.06-5.29.62-8.72,5.51-7.67,10.94,1.8,9.31,4.56,18.54,8.06,27.55-.81-.2-1.61-.3-2.4-.3-3.83,0-7.26,2.29-8.48,6.12-7.7,24.14-1.35,52.83,15.36,73.72-9.91,13.77-18.25,28.63-23.94,45.18-13.4-25.04-20.6-48.75-21.38-70.77-.72-20.29,3.85-40.57,8.27-60.17,1.18-5.22-2.14-10.77-7.39-12.39-.99-.31-1.98-.45-2.94-.45-4.14,0-7.75,2.71-8.71,6.94-4.69,20.8-9.54,42.31-8.73,65.14,1.08,30.57,12.63,63.46,34.34,97.96-1.92,11.53-2.85,23.21-3.46,34.8-1.63,2.12-2.34,4.97-1.65,7.96.24,1.02.65,1.95,1.15,2.83-.06,1.34-.12,2.68-.17,4.02l-.44,10.78c-5.13-5.7-9.95-11.13-13.1-17.03-5.81-10.87-6.65-24.27-7.54-38.46-1.22-19.49-2.53-39.6-17.08-55.63,2.32-3.48,2.04-8.41-1.01-12.03,0,0-.01-.01-.02-.02-2.12-2.5-5.09-3.81-7.99-3.81-2.08,0-4.12.68-5.78,2.08-15.06,12.7-32.8,22.69-51.68,29.18,1.93-40.73,12.15-82.21,30.53-123.69,2.07-4.66-.13-10.47-4.93-12.96-1.47-.77-3.02-1.13-4.52-1.13-3.36,0-6.47,1.84-7.9,5.07-21.55,48.6-32.39,97.39-32.39,145.25-1.12-.42-2.27-.62-3.39-.62-2.97,0-5.78,1.42-7.38,4.1,0,.01-.01.02-.02.03-25.59-23.76-49.04-49.98-69.79-78.12-2.16-2.87-5.35-4.41-8.47-4.41-1.85,0-3.67.54-5.24,1.67-4.22,3.03-4.93,9.17-1.57,13.72,7.85,10.65,16.08,21.04,24.64,31.14,15.08,17.78,31.23,34.64,48.3,50.45-7.89,6.85-17.54,11.64-28.04,13.74-5.38,1.08-10.97,1.47-16.7,1.47-6.52,0-13.23-.51-20.04-1.1-.27-.02-.54-.04-.81-.04-2.16,0-4.1.77-5.6,2.04-19.81-14.22-40.85-26.49-63-36.55-1.33-.6-2.7-.89-4.03-.89-3.55,0-6.79,2.06-8.09,5.55-1.8,4.8.73,10.49,5.62,12.72,3.78,1.72,7.51,3.54,11.22,5.39-15.02,3.71-29.48,9.13-43.09,16.08-.16-.22-.29-.45-.47-.66l-33.01-38.92c-2.05-2.42-4.93-3.69-7.73-3.69-2.02,0-4.01.66-5.62,2.03-3.83,3.25-4.07,9.27-.53,13.44l31.34,36.94c-3.08,1.96-6.12,3.98-9.09,6.1-16.06-11.03-33.46-19.32-51.83-24.6-.9-.26-1.79-.38-2.66-.38-4.08,0-7.62,2.73-8.47,6.92-.62,3.07.34,6.22,2.32,8.56,1.3,1.54,3.04,2.72,5.07,3.31,14.21,4.09,27.76,10.22,40.44,18.2-1.46,1.28-2.91,2.58-4.34,3.91-4.18,3.9-7.29,8.01-9.29,12.16-.11,0-.21,0-.32,0-.34,0-.67,0-1.01.06-5.82.85-11.76,1.27-17.74,1.27-11.98,0-24.13-1.69-35.87-5.04-.89-.25-1.77-.37-2.63-.37-4.09,0-7.63,2.74-8.48,6.94-.61,3.06.35,6.2,2.33,8.54,1.31,1.54,3.06,2.73,5.09,3.31,13.4,3.82,27.28,5.74,40.96,5.74,5.64,0,11.24-.33,16.76-.98.21.47.41.95.65,1.41-1.1,1.87-1.52,4.2-1.01,6.62.43,2.05,1.36,3.88,2.64,5.39,2.22,2.62,5.49,4.23,9.01,4.23.28,0,.55,0,.83-.03,6.51-.47,11.33-6.09,10.73-12.53-.44-4.81-3.12-8.21-4.73-10.25-.29-.36-.59-.72-.83-1.1-.71-1.1.78-5.67,6.29-10.8,12.1-11.28,25.8-20.76,40.58-28.33,3.18,9.63,8.36,18.35,14.13,26.25-23.24,27.55-53.78,47.81-88.58,58.64-1.85.58-3.34,1.71-4.38,3.18-11.57-5.11-22.69-11.13-33.23-18.59-1.84-1.3-3.92-1.93-5.93-1.93-2.98,0-5.81,1.39-7.5,4.02-2.35,3.65-1.77,8.55,1.13,11.96.59.7,1.28,1.33,2.05,1.88,28.43,20.12,60.54,30.84,92.7,39.5-6.66,4.87-14.96,7.72-23.39,7.72-.77,0-1.55-.02-2.32-.07-.2-.01-.4-.02-.59-.02-4.94,0-8.76,3.91-8.65,8.99.05,2.43.99,4.7,2.5,6.48,1.77,2.09,4.33,3.5,7.15,3.67,1.2.07,2.39.11,3.58.11,17.32,0,33.75-7.85,44.11-21.07.65.17,1.31.33,1.97.5,9.44,2.39,19.05,4.83,28.59,7.46-.11.14-.25.25-.36.4-9.38,13.12-24.85,21.35-41.37,22.03-5.18.21-8.86,4.67-8.21,9.95.25,2.08,1.13,3.97,2.43,5.5,1.92,2.26,4.73,3.7,7.73,3.7.13,0,.25,0,.38,0,21.84-.89,42.27-11.77,54.66-29.1,1.58-2.21,1.95-4.98,1.32-7.58,3.09.96,6.19,1.91,9.23,2.94,33.68,11.44,64.16,28.33,89.51,49.03-9.9,6.16-20.82,10.77-32.29,13.73l-10.52-15.98c-1.98-3.02-5.29-4.73-8.53-4.73-1.61,0-3.21.42-4.63,1.31-4.27,2.67-5.29,8.54-2.28,13.11l6.36,9.66c-3.61.32-7.24.53-10.88.53-.41,0-.81,0-1.22,0-.04,0-.08,0-.13,0-5.14,0-9,4.2-8.64,9.45.16,2.27,1.07,4.36,2.48,6.01,1.88,2.21,4.63,3.65,7.6,3.69.61,0,1.21.01,1.82.01,7.02,0,14-.55,20.88-1.59l34.29,52.1c8.79,13.36,17.82,27.07,28.51,39.68,3.13,3.69,6.4,7.28,9.85,10.75,15.57,15.62,34.44,28.05,54.57,35.95,1.16.45,2.33.67,3.47.67,1.51,0,2.96-.38,4.24-1.07,6.78,14.95,14.75,29.47,23.83,43.32-3.45-.7-6.89-1.3-10.22-1.88l-3.57-.62c-17.79-3.15-28.77-9.11-32.63-17.75-1.72-3.86-5.51-6.25-9.34-6.25-1.09,0-2.18.19-3.23.6-4.73,1.84-6.76,7.35-4.54,12.31,1.56,3.48,3.58,6.69,6.07,9.63,8.56,10.09,22.61,16.91,41.95,20.33l3.66.64c11.9,2.05,24.14,4.18,32.31,10.77,7.77,9.51,16.07,18.58,24.84,27.15.3,1.21.58,2.41.91,3.62.42,1.54,1.17,2.93,2.15,4.08,1.93,2.28,4.76,3.64,7.69,3.64.45,0,.91-.03,1.36-.1,10.93,9.63,22.45,18.53,34.52,26.46,0,0,.02,0,.02.01-1.41,2.55-2.79,5.08-4.22,7.64-20.07,35.98-40.83,73.18-35.59,115.37.26,2.07,1.14,3.95,2.42,5.47,1.91,2.26,4.73,3.7,7.73,3.7.14,0,.27,0,.41,0,5.17-.23,8.84-4.69,8.18-9.98-.51-4.09-.67-8.15-.6-12.2,2.23-.96,4.02-2.82,4.79-5.38.24-.8.62-1.39,1.78-1.88,1.15-.48,2.66-.71,4.41-.71,4.16,0,9.66,1.31,14.74,3.65,17.08,7.88,33.42,17.71,48.58,29.21,3.27,2.48,6.49,5.04,9.72,7.6,10.74,8.53,21.85,17.35,34.79,23.47,5.26,2.49,10.56,4.41,15.73,6.23-1.83,4.98-3.97,9.84-6.37,14.54-1.74.15-3.42.79-4.82,1.97-2.97,2.51-3.77,6.69-2.34,10.38-13.88,21.26-33.6,38.47-56.7,48.64-4.63,2.04-6.44,7.65-4.03,12.53.4.81.89,1.55,1.45,2.21,1.98,2.34,4.85,3.68,7.73,3.68,1.21,0,2.42-.24,3.56-.74,24.35-10.72,45.39-28.36,60.84-50.18l42.74,50.55c6.35,7.51,16.32,21.22,11.75,28.62-2.19,3.53-1.59,8.2,1.17,11.45.6.71,1.31,1.36,2.12,1.91,1.76,1.2,3.71,1.78,5.61,1.78,2.94,0,5.72-1.4,7.34-4.02,5.5-8.89,5.21-19.54-.78-31.81.89.32,1.79.6,2.68.91.31,3.24,2.16,6.39,5.19,8.25,14.46,8.81,25.48,24.46,28.76,40.85.37,1.85,1.22,3.52,2.38,4.89,1.99,2.35,4.92,3.82,7.98,3.82.39,0,.78-.02,1.17-.07,5.28-.65,8.67-5.58,7.59-11.01-2.77-13.82-9.34-26.93-18.58-37.8,3.92.67,7.85,1.26,11.77,1.7.36.04.71.06,1.06.06,4.73,0,8.51-3.63,8.64-8.53.15-5.26-3.96-9.99-9.19-10.57-24.28-2.71-48.83-10.42-71-22.31-.16-.08-.32-.13-.48-.2l-37.86-44.78c3.35-6.28,6.26-12.82,8.7-19.55,15.95,7.95,29.16,22.02,36.39,38.41-1.75,1.32-2.99,3.32-3.33,5.75-.72,5.16,2.87,10.29,8.05,11.45l6.96,1.57c.7.16,1.41.24,2.1.24,2.39,0,4.65-.93,6.28-2.65,2.1-2.22,2.88-5.45,2.06-8.61-7.07-27.4-27.38-51.96-53-64.08-2.92-1.38-5.85-2.58-8.76-3.69-.06-.02-.11-.06-.17-.08-.06-.02-.13-.03-.19-.05-2.73-1.03-5.44-1.99-8.11-2.93-5.39-1.89-10.47-3.68-15.28-5.95-10.78-5.1-20.47-12.8-30.73-20.94-3.35-2.66-6.7-5.32-10.09-7.89-6.22-4.72-12.63-9.17-19.2-13.36,1.91-3.63,1.15-8.44-2.17-11.66-11.91-11.56-16.79-30.03-11.75-44.84.19-.56.31-1.13.39-1.7,2.81-.97,5.57-2.05,8.3-3.21,14.79,2.32,29.03,5.11,41.36,10.28.32.56.69,1.1,1.11,1.59,1.78,2.09,4.33,3.5,7.15,3.67.75.05,1.49.04,2.24.07,4.51,2.76,8.65,6,12.29,9.89,6.68,7.14,11.6,16.28,16.79,25.95,7.38,13.76,15.02,27.97,28.69,37.91,4.07,2.96,8.27,5.22,12.44,7.27.7,2.23,2.13,4.28,4.24,5.68,3.95,2.63,6.18,8.48,4.87,12.78-1,3.27-.08,6.82,2.11,9.41,1.11,1.31,2.54,2.36,4.22,3.02,1.17.45,2.35.67,3.5.67,3.76,0,7.12-2.3,8.27-6.07.98-3.21,1.32-6.59,1.11-9.98,23.31,15.54,43.05,36.78,56.76,61.45,1.9,3.42,5.43,5.42,8.94,5.42,1.37,0,2.73-.31,4-.95,4.49-2.3,5.99-8.02,3.35-12.79-7.88-14.19-17.57-27.35-28.64-39.18,7-1.33,13.57-4,19.78-7.27,7.19,10.71,15.5,20.48,23.96,29.85-.11.98-.12,1.99.09,3.04,3.1,15.82.53,32.5-7.04,45.77-2.08,3.64-1.39,8.29,1.38,11.56.69.82,1.52,1.55,2.47,2.16,1.75,1.12,3.66,1.65,5.5,1.65,3.15,0,6.11-1.55,7.75-4.42,6.27-10.99,9.84-23.8,10.55-36.97,1.26,1.42,2.54,2.83,3.76,4.26.29.34.58.68.87,1.02,19.56,23.06,29.62,43.41,30.74,62.2.14,2.37,1.09,4.57,2.56,6.3,1.92,2.26,4.72,3.74,7.76,3.81.07,0,.15,0,.22,0,5.27,0,9.25-4.28,8.92-9.67-1.4-23.53-13.15-48.02-35.88-74.82-.31-.37-.62-.73-.94-1.1-5.33-6.22-10.93-12.3-16.34-18.17-11.08-12.03-21.62-23.48-30.21-36.19.29-.19.58-.37.86-.56l4.11-2.66c7.37-4.72,19.38-11.06,30.62-11.06,4.45,0,8.79.99,12.67,3.48,1.75,1.12,3.66,1.66,5.51,1.66,3.15,0,6.11-1.55,7.74-4.42,2.6-4.55.89-10.7-3.84-13.71-7.13-4.57-15.08-6.84-23.67-6.84-.51,0-1.02,0-1.53.02l-1.18-12.38c-.52-5.41-5.21-9.75-10.52-9.75-.05,0-.09,0-.14,0-5.36.08-9.29,4.57-8.76,10.03l1.53,16.02c-6.38,2.31-12.99,5.61-19.8,9.97l-4.2,2.72c-11.83,7.68-24.02,15.59-36.42,15.59-1.54,0-3.09-.12-4.64-.38-.52-.09-1.02-.13-1.52-.13-1.05,0-2.06.18-3.01.5-11.41-9.24-23.8-17.21-36.91-23.61-1.38-.67-2.76-1.32-4.14-1.98-5-2.37-9.72-4.6-13.7-7.49-6.67-4.85-11.67-11.83-16.27-19.66,7.64-3.16,16.04-4.66,24.61-4.66,22.92,0,47.16,10.76,62,29.45.07.1.15.19.23.28,2.04,2.41,4.92,3.69,7.73,3.69,1.91,0,3.79-.59,5.36-1.82,3.96-3.1,4.42-9.09,1.02-13.37-18.91-23.92-48.95-37.51-77.74-37.51-11.38,0-22.56,2.12-32.78,6.57-4.48-8.14-9.4-16.25-15.97-23.43,11.87-2.32,23.22-6.56,33.58-12.43,1.27.54,2.62.84,3.98.84.98,0,1.96-.15,2.91-.48,2.88-.98,5.85-1.41,8.89-1.41,10.16,0,21.27,4.79,33.69,10.14,10.28,4.43,20.92,9.02,32.04,11.12,5.1.96,10.11,1.36,15.05,1.36,12.42,0,24.34-2.53,35.98-5.01,6.88-1.46,13.38-2.84,19.94-3.72,3.29-.44,6.7-.67,10.12-.67,4.54,0,9.11.4,13.51,1.26.23,2.03,1.03,4.06,2.5,5.78,0,.01.02.02.03.04,2.12,2.48,5.08,3.78,7.96,3.78,2.1,0,4.17-.69,5.83-2.12.31-.26.62-.52.93-.78,4.33,2.87,7.9,6.55,10.22,11.2,1.87,3.78,5.66,6.04,9.45,6.04,1.27,0,2.53-.25,3.73-.79,4.77-2.13,6.61-7.93,4.1-12.97-2.71-5.45-6.96-10.99-12.74-15.88,2.96-2.44,5.96-4.85,8.96-7.27,18.18,16.9,42.52,26.55,66.1,26.55,6.32,0,12.58-.69,18.65-2.12,5.14-1.21,7.98-6.51,6.36-11.84-1.4-4.59-5.67-7.7-10.11-7.7-.71,0-1.43.08-2.14.25-4.75,1.12-9.66,1.66-14.6,1.66-17.43,0-35.39-6.73-49.31-18.63,7.02-5.47,14.08-10.87,21.19-16.13,4.18-3.09,4.8-9.25,1.39-13.75-2.13-2.8-5.29-4.3-8.38-4.3-1.89,0-3.76.56-5.35,1.74-17.56,12.99-34.88,26.67-51.71,40.74-7.82-2.86-16.91-4.61-27.32-4.61-4.27,0-8.76.29-13.48.93-7.26.97-14.4,2.49-21.32,3.96-11.05,2.35-21.66,4.6-32.08,4.6-3.83,0-7.64-.3-11.43-1.02-8.9-1.68-18.04-5.62-27.71-9.79-10.02-4.32-20.23-8.7-30.6-10.71,2.95-3.14,5.71-6.45,8.25-9.96,2.96-4.09,1.86-10.13-2.42-13.48-1.87-1.46-4.04-2.17-6.14-2.17-2.73,0-5.33,1.2-7,3.51-16.67,23.05-44.45,36.92-73.68,37.18-9.29-4.94-19.41-8.31-30.03-10.86,2.85-1.96,5.63-4.01,8.36-6.13.37.04.74.06,1.12.06,1.61,0,3.21-.41,4.63-1.31,5.95-3.77,13.2-5.69,20.59-5.69,5.84,0,11.77,1.2,17.2,3.63,1.32.59,2.67.87,3.97.87,3.57,0,6.82-2.08,8.11-5.61.55-1.5.64-3.08.41-4.62l44.77-19.28c4.8-2.07,6.71-7.84,4.27-12.9-1.85-3.82-5.68-6.15-9.52-6.15-1.22,0-2.45.24-3.61.74l-54.01,23.25c-1.02.44-1.89,1.08-2.63,1.81-2.48-.43-4.98-.71-7.47-.84,9.82-10.77,18.56-22.04,26.25-32.81,14.26-2.3,26.94-8.67,38.18-15.92,18.25,10.82,37.24,21.18,58.2,26.78,4.19,1.12,8.34,1.97,12.44,2.61.41,1.45,1.1,2.86,2.15,4.1.04.05.08.1.13.15,18.51,21.08,41.82,37.5,67.43,47.48,1.21.47,2.44.7,3.64.7,3.87,0,7.33-2.37,8.53-6.25,1.56-5.07-1.36-10.83-6.51-12.84-2.89-1.13-5.74-2.35-8.56-3.67,14.44-9.19,26.92-20.67,38.47-32.99,22.62,12.24,47.53,19.86,72.34,21.99.28.02.56.04.84.04,5,0,8.93-3.9,8.93-9.06.01-5.45-4.35-10.23-9.74-10.69-20.23-1.73-40.55-7.54-59.29-16.88,3.34-3.87,6.64-7.75,9.91-11.61,5.36-6.32,10.79-12.71,16.37-18.95,7.82,3.86,15.2,9.43,22.93,15.3,3.45,2.62,7.01,5.32,10.66,7.9,15.63,11.03,30.08,16.59,43.08,16.59,3,0,5.91-.29,8.75-.89,5.18-1.08,8.16-6.29,6.66-11.65-1.31-4.7-5.63-7.94-10.17-7.94-.64,0-1.28.06-1.91.2-1.58.33-3.24.49-4.95.49-8.76,0-19.23-4.27-31.23-12.74-3.34-2.36-6.6-4.83-10.05-7.45-6.46-4.9-13.07-9.9-20.26-14.13,5.89-5.84,12.04-11.31,18.52-16.26.75.17,1.51.27,2.27.27,1.56,0,3.1-.38,4.5-1.19,12.44-7.19,25.85-12.62,39.81-16.25.08.03.16.07.24.09,9.78,2.85,18.34,11.92,27.39,21.51,12.15,12.88,25.91,27.46,45.33,27.46.16,0,.31,0,.47,0,5.37-.07,9.3-4.55,8.79-10.01-.51-5.42-5.21-9.78-10.52-9.78-.04,0-.08,0-.12,0-.07,0-.15,0-.22,0-10.63,0-19.69-9.61-30.18-20.72-4.16-4.41-8.55-9.05-13.33-13.31,5.07-.44,10.18-.67,15.31-.67,17.15,0,34.53,2.5,51.51,7.6.96.29,1.92.43,2.86.43,4.17,0,7.81-2.75,8.73-7.03,1.13-5.23-2.23-10.75-7.5-12.34-18.87-5.67-38.19-8.47-57.25-8.47-22.31,0-44.26,3.83-64.74,11.36.48-6.1-.94-12.59-5.32-18.25-2.16-2.75-5.27-4.2-8.3-4.2-1.94,0-3.84.59-5.45,1.82-4.13,3.15-4.67,9.33-1.21,13.79,1.41,1.81.99,5.86-.91,8.85-2.4,3.76-6.55,6.8-10.95,10.02l-2.19,1.62c-20.26,15.09-36.73,34.53-52.66,53.33-19.9,23.48-38.69,45.67-64.03,59.69-.86.48-1.57,1.11-2.2,1.8-7.71-5.14-14.97-10.99-21.69-17.48,14.2-1.36,26.96-6.02,37.12-13.85,4.11-3.17,4.63-9.35,1.14-13.8-2.14-2.71-5.21-4.13-8.22-4.13-1.78,0-3.53.5-5.05,1.52,19.07-15.57,38.05-31.34,56.7-47.21,3.95-3.36,4.19-9.57.54-13.88,0,0,0,0,0-.01-2.12-2.5-5.09-3.8-7.98-3.8-2.09,0-4.15.69-5.81,2.1-29.09,24.75-58.95,49.32-88.78,73.11-4.48-.53-9.06-1.4-13.73-2.65-15.4-4.11-30.19-11.51-44.58-19.71.28-.21.57-.42.85-.63l34.55-25.66,156.59-48c5.03-1.54,7.52-7.04,5.58-12.28-1.6-4.31-5.71-7.11-9.91-7.11-.91,0-1.82.13-2.71.4l-101.17,31.01c3.97-3.15,4.53-9.16,1.18-13.58-1.12-1.44-2.52-2.5-4.03-3.22,6.3-10.01,13.93-19.17,22.31-27.62.47.07.93.1,1.4.1,1.15,0,2.3-.21,3.4-.65l70.36-28.38c6.29-2.54,12.79-5.17,19.16-5.78,1.17-.12,2.37-.17,3.58-.17,5.27,0,10.88.99,16.76,2.02l51.98,9.16c.58.1,1.15.15,1.71.15,4.63,0,8.46-3.38,8.9-8.18.49-5.38-3.46-10.51-8.83-11.46l-2.45-.43,32.93-12.13c4.92-1.81,7.12-7.46,4.92-12.61-1.75-4.08-5.71-6.62-9.71-6.62-1.07,0-2.14.18-3.18.56l-58.99,21.73c-1.42.52-2.58,1.39-3.51,2.45l-11.99-2.11c-6.25-1.1-13.16-2.31-20.21-2.31-1.78,0-3.56.08-5.35.25-8.99.88-17.06,4.13-24.19,7.01l-16.32,6.59c1.86-1.32,3.71-2.63,5.53-3.91,4.24-3,5-9.13,1.68-13.7-2.14-2.91-5.36-4.48-8.51-4.48-1.83,0-3.63.53-5.19,1.63-7.6,5.37-15.6,11.03-23.63,17.07,2.34-2.15,4.52-4.51,6.6-6.98,3.77-.86,6.33-4.29,6.1-8.4,6.61-10.68,10.24-22.74,13.73-34.42,1.41-4.72,2.79-9.33,4.33-13.76,1.15.44,2.34.66,3.5.66,2.66,0,5.2-1.14,6.87-3.37,3.02-4.04,2.01-10.1-2.23-13.5-.17-.14-.33-.29-.5-.43,1.13-1.8,2.32-3.56,3.68-5.19,2.39-2.89,5.17-5.5,8.18-8,1.53,1.01,3.3,1.57,5.07,1.57,1.08,0,2.17-.21,3.2-.65,12.92-5.51,26.59-9.5,40.63-12.04,1.7,1.18,3.71,1.9,5.83,1.9.13,0,.25,0,.38,0,2.97-.13,5.42-1.63,6.94-3.85,7.35-.82,14.76-1.25,22.21-1.25.57,0,1.14,0,1.71,0,1.13.41,2.29.62,3.45.62.91,0,1.81-.13,2.68-.39,1.9.07,3.79.09,5.69.22.2.01.4.02.59.02,4.54,0,8.07-3.58,7.99-8.26-.02-1.35-.37-2.64-.92-3.82l27.99-27.91c3.68-3.67,3.42-9.91-.47-13.98-2.1-2.15-4.83-3.25-7.48-3.25-2.33,0-4.6.85-6.32,2.56l-36.63,36.52c-6.51,0-12.99.32-19.43.9.43-12.3,3.9-24.23,9.75-34.65,1.67-.38,3.22-1.23,4.42-2.58,1.76-1.97,2.43-4.58,2.12-7.16,6.98-8.81,15.9-15.94,26.26-20.36,4.81-2.05,6.73-7.82,4.3-12.89-1.84-3.84-5.66-6.13-9.5-6.13-.34,0-.69.02-1.03.06,1.37-4.85,3.32-9.5,5.93-13.69,2.76-4.44,1.26-10.61-3.37-13.81-1.82-1.25-3.85-1.85-5.81-1.85-3.03,0-5.9,1.44-7.58,4.13-5.7,9.16-9.32,19.86-10.47,30.94-.19,1.88.2,3.72.98,5.39-4.76,3.68-9.09,7.88-13.01,12.48l-37.45-34.92c-1.99-1.85-4.46-2.78-6.86-2.78-2.42,0-4.76.94-6.45,2.83-3.09,3.46-2.89,8.88.28,12.63.27.32.56.63.88.92l39.07,36.43c-7.93,14.28-12.23,30.81-11.96,47.7-4.45.82-8.86,1.79-13.22,2.9,1.83-2.23,3.52-4.61,5.01-7.23,2.32-4.07.78-9.55-3.45-12.26-1.56-1-3.27-1.47-4.92-1.47-2.82,0-5.47,1.39-6.93,3.96-1.91,3.36-4.41,6.32-7.26,9.09-4.87-17.02-2.14-35.86,7.7-49.2,3.09-4.2,2.01-10.45-2.38-13.93-1.95-1.54-4.22-2.29-6.41-2.3-2.78,0-5.45,1.21-7.18,3.56-15.08,20.45-17.86,49.27-7.47,74.42-6.68,4.91-13.45,10.08-19.03,16.82-.53.64-.98,1.31-1.47,1.96-.3-.68-.6-1.35-.86-2.04-1.57-4.14-5.52-6.81-9.56-6.81-.9,0-1.81.13-2.69.41-4.85,1.53-7.23,6.87-5.31,11.94,2,5.27,4.81,10.31,8.21,14.93-2.75,6.81-4.88,13.88-6.95,20.84-1.77,5.95-3.5,11.72-5.56,17.16-4.34-6.48-10.06-12.06-16.69-15.97-1.48-.87-3.08-1.29-4.62-1.29-2.94,0-5.68,1.51-7.09,4.25-2.16,4.18-.39,9.62,3.91,12.16,7.05,4.15,12.41,11.35,14.65,19.17-14.83,18.99-40.78,26.97-68.85,33.45l34.49-78.35c1.42-3.23.63-7.04-1.72-9.72,5.88-2.26,11.15-5.5,15.92-9.14,3.26-.27,6.18-2.19,7.49-5.41.21-.52.46-1.02.68-1.54,2.91-2.71,5.63-5.45,8.18-8.03,2.85-2.89,3.18-7.37,1.22-11.05,8.69-15.31,19.57-29.33,32.19-41.21,3.78-3.56,3.81-9.71-.1-13.95-2.1-2.27-4.9-3.42-7.63-3.42-.54,0-1.07.04-1.59.13.8-3.75,1.95-7.38,3.45-10.86.03,0,.06,0,.09,0,.02,0,.05,0,.07,0,.03,0,.06,0,.1,0,5.02-1.01,7.94-6.05,6.51-11.24-.03-.1-.04-.2-.06-.3,1.67-2.2,3.44-4.32,5.44-6.22,3.76-3.59,3.64-9.88-.18-13.96-1.74-1.85-3.95-2.92-6.19-3.25.64-3.48,1.67-6.84,2.99-10.06,13.55-3.27,27.75-4.94,42.04-4.94,7.88,0,15.78.51,23.6,1.53.41.05.82.08,1.23.08,4.66,0,8.42-3.52,8.65-8.35.24-5.24-3.8-10.05-9.01-10.73-8.78-1.15-17.52-1.71-26.2-1.71-8.33,0-16.6.52-24.79,1.55.96-1.46,1.88-2.99,2.65-4.68,3.89-8.49,3.94-20.75-4.68-29.05-2-1.92-4.53-2.89-6.98-2.89-2.37,0-4.67.9-6.35,2.72-3.42,3.7-2.97,9.74.95,13.54.64.66,1.07,3.67-.2,6.46-1.29,2.82-3.64,5.54-6.13,8.42-1.25,1.44-2.49,2.89-3.67,4.38-10.73,13.68-15.48,32.33-13.31,50.59-7.92,13.19-11.82,29.1-10.69,45.15.06.92.28,1.79.57,2.64-11.84,14.2-21.71,30.22-29.15,47.31-5.82,4.97-12.18,9.17-19.31,10.85-2.96.7-6.09.98-9.34.98-7.03,0-14.65-1.34-22.58-2.72-7.73-1.35-15.96-2.78-24.09-2.87,3.5-5.01,6.73-10.29,9.21-16.11.15-.36.26-.73.41-1.1,33.18-1.63,64.83-15.02,87.97-37.52,3.61-3.51,3.45-9.54-.3-13.52-2.03-2.14-4.71-3.23-7.31-3.23-2.22,0-4.38.79-6.04,2.41-3.17,3.08-6.55,5.95-10.06,8.63.11-5.55-.21-11.1-.54-16.38-1-16.54-1.11-26.98,5.95-32.6,4.06-3.23,4.48-9.43.94-13.83-.06-.08-.12-.15-.19-.23-2.11-2.49-5.08-3.81-7.98-3.81-2,0-3.97.63-5.6,1.92-14.82,11.8-13.64,31.1-12.61,48.12.7,11.51,1.31,22.38-2.45,30.23-11.34,5.15-23.57,8.55-36.17,10.01.29-1.4.58-2.81.86-4.2,1.53-7.6,2.97-14.78,5.65-21.22,3.08-7.42,7.93-14.17,13.05-21.3,7.23-10.07,14.71-20.47,17.84-33.81.63-2.7,1.13-5.51,1.61-8.24,1.69-9.54,3.2-16.39,7.29-17.57,4.89-1.41,7.4-6.69,5.59-11.79-1.51-4.24-5.52-7.02-9.65-7.02-.83,0-1.67.11-2.49.35-14.6,4.21-17.35,19.79-19.36,31.16-.44,2.48-.87,4.94-1.41,7.23-2.32,9.9-8.49,18.49-15.03,27.59-5.47,7.61-11.12,15.48-14.97,24.75-3.34,8.05-5.03,16.44-6.67,24.57-.78,3.88-1.54,7.66-2.45,11.28-3,1.51-4.95,4.7-4.7,8.47.07,1.1.33,2.16.74,3.16-3.59,7.83-9.12,14.95-14.97,22.46-8.59,11.01-17.44,22.35-20.66,36.95-11.04,10.7-19.98,23.67-26.15,37.99-.67-3.9-1.46-7.79-2.39-11.66-1.14-4.7-5.41-8.04-9.95-8.04-.5,0-1,.04-1.51.12-5.06.85-8.14,5.77-6.88,10.99,2.88,11.92,4.28,24.02,4.31,36.04-10.15,5.97-19.35,13.5-27.17,22.28.61-4.6,1.19-9.19,1.76-13.7,3.58-28.38,6.96-55.19,16.67-80.42,10.79-28.05,29.21-52.95,47.02-77.04,32.88-44.43,66.75-90.19,107.63-128.2.3.04.59.13.9.15l43.63,2.37c.18,0,.35.01.53.01,5.13,0,9.09-4.09,8.93-9.37-.16-5.45-4.65-10.11-10.05-10.4l-22.65-1.23c5.22-4.25,10.53-8.46,15.89-12.62,1.04.66,2.2,1.16,3.45,1.43.68.14,1.35.21,2.01.21,2.94,0,5.56-1.39,7.2-3.64,16.96,9.75,35.43,16.51,54.22,19.66.53.09,1.06.13,1.57.13,4.52,0,8.24-3.32,8.62-8,.42-5.22-3.44-10.15-8.64-11.02-15.9-2.66-31.55-8.25-45.98-16.33,8.84-7.06,17.5-14.34,25.64-22.02.12.21.2.43.34.63,3.5,5.25,7.3,10.29,11.36,15.09,12.77,15.05,28.21,27.72,45.4,37.16,1.53.84,3.16,1.24,4.73,1.24,3.28,0,6.33-1.75,7.8-4.87,2.18-4.6.1-10.45-4.63-13.05-19.67-10.8-36.72-26.49-49.27-45.36-.93-1.4-2.15-2.47-3.5-3.26,14.21-15.57,25.79-33.06,32.1-54.05,1.48-4.93-1.37-10.48-6.37-12.4-1.16-.44-2.33-.66-3.47-.66-3.77,0-7.14,2.32-8.27,6.11-9.28,30.85-32.77,54.24-58.82,75.57-.7-15.19-3.19-30.47-7.5-45.25-1.37-4.65-5.66-7.83-10.14-7.83-.67,0-1.35.07-2.02.22-5.16,1.14-8.08,6.4-6.52,11.74,1.47,5.04,2.68,10.16,3.68,15.3-5.7-6.01-11.82-11.63-18.31-16.79-1.95-1.55-4.22-2.31-6.42-2.31-2.78,0-5.44,1.21-7.17,3.55-2.7,3.64-2.25,8.83.8,12.42.46.54.98,1.05,1.56,1.51,11.68,9.29,21.95,20.2,30.55,32.43.62.89,1.38,1.61,2.18,2.25,0,2.38-.06,4.75-.17,7.11-.27.51-.48,1.03-.64,1.58-.77.6-1.54,1.19-2.3,1.79-8.62,6.68-17.52,13.58-25.92,20.58-7.77,6.47-15.24,13.23-22.52,20.19-1.5-3.98-3.42-7.73-5.19-11.13-2.08-4-4.04-7.78-5.02-11.2-2.01-7.02.27-14.97,5.52-19.32,4-3.31,4.31-9.52.7-13.87-.02-.03-.05-.06-.07-.09-2.12-2.5-5.09-3.81-7.98-3.81-2.06,0-4.07.66-5.72,2.03-10.79,8.93-15.27,24.63-11.15,39.07,1.58,5.52,4.14,10.46,6.63,15.24,3.86,7.44,6.13,12.22,5.06,15.9-.44,1.53-.44,3.1-.15,4.62-17.41,18.29-33.58,37.71-49.06,57.52-1.44-6.94-3.92-13.74-7.49-20-1.98-3.47-5.59-5.49-9.17-5.49-1.45,0-2.9.33-4.23,1.03-4.61,2.43-6.08,8.37-3.29,13.26,5.41,9.49,7.37,20.77,5.38,30.96-.3,1.54-.21,3.09.19,4.56-6.68,8.9-13.28,17.8-19.83,26.66-4.69,6.34-9.42,12.74-14.06,19.25-14.27-25.47-14.02-58.77,1.9-80.68,3.07-4.22,1.93-10.46-2.47-13.93-1.94-1.51-4.18-2.25-6.36-2.25-2.81,0-5.49,1.23-7.22,3.61-1.37,1.89-2.64,3.85-3.83,5.86,3.35-10.65,10.14-19.86,18.97-26.3,1.21-.47,2.28-1.2,3.17-2.13,5.93-3.69,12.61-6.21,19.69-7.16,3.97-.53,8.3-.77,12.9-1.02,16.29-.89,36.55-1.99,45.07-19.54,2.3-4.73.21-10.78-4.67-13.51-1.61-.9-3.31-1.33-4.96-1.33-3.36,0-6.48,1.78-8.02,4.95-3.72,7.68-14.32,8.82-30.07,9.68-4.75.26-9.67.53-14.36,1.16-4.14.56-8.17,1.54-12.07,2.84-.34-7.23-1.52-14.47-3.56-21.58,2.6-2.22,5.16-4.3,7.7-6.27,1.06.36,2.17.57,3.3.57.57,0,1.14-.05,1.72-.17,4.34-.86,7.13-4.62,7.1-8.96,12.16-7.77,23.91-12.71,35.86-15.04,5.19-1.02,8.23-6.19,6.8-11.56-1.27-4.74-5.63-8.05-10.21-8.05-.6,0-1.2.06-1.8.17-12.06,2.36-23.79,6.87-35.65,13.65-2.08-8.87-3.72-17.77-4.2-26.53.06-.06.14-.1.2-.17,3.35-3.46,3.3-9.1.07-13.06,1.55-14.48,7.36-26.33,16.42-33.09,4.16-3.11,4.77-9.27,1.35-13.76-2.14-2.75-5.32-4.25-8.41-4.25-1.89,0-3.74.56-5.32,1.73-9.95,7.42-17.14,18.73-20.92,32.38l-17.67-17.61c-2.08-2.08-4.76-3.13-7.35-3.13-2.38,0-4.7.89-6.43,2.67-3.41,3.53-3.32,9.3.06,13.29.2.24.41.47.64.69l27.75,27.66c.02,15.2,3.15,29.98,6.88,44.37-5.23,3.91-10.51,8.22-15.91,13.08-2.79,2.51-3.7,6.6-2.31,10.39,3.96,10.77,5.32,22.13,4.05,33.09-8.51,6.47-15.53,14.86-20.37,24.51-2.24-2.52-4.53-4.97-6.96-7.3-2.07-1.98-4.67-2.97-7.2-2.97-2.45,0-4.83.94-6.57,2.82-3.53,3.82-3.08,10.08,1,13.99,5.49,5.26,10.39,11.14,14.61,17.45.41.85.89,1.66,1.5,2.39.02.02.04.04.06.06,3.26,5.17,6.05,10.61,8.33,16.24-5.68,26.15-.11,55.68,16.25,78.98-9.17,14.1-17.47,28.88-23.64,44.92-10.49,27.26-14.17,56.44-17.73,84.66-1.14,9.01-2.32,18.34-3.69,27.38-4.45,29.25-11.33,57.85-20.55,85.64-9.39-13.68-16.25-26.92-17.45-40.89-1.16-13.41,3.03-26.51,7.46-40.37,1.25-3.91,2.49-7.81,3.62-11.72,7.64-26.47,5.84-48.18-5.32-64.53-2.03-2.95-5.26-4.58-8.43-4.58-1.67,0-3.32.45-4.77,1.4-4.21,2.76-5.13,8.65-2.04,13.17,7.55,11.05,8.35,27.13,2.4,47.79-1.08,3.75-2.28,7.48-3.48,11.23-4.79,14.98-9.73,30.48-8.25,47.69,2.04,23.71,16.28,44.99,28.84,61.7-6.88,18.08-14.77,35.78-23.67,53.05-13.77-9.11-26.81-19.51-38.95-30.95-.94-4.39-1.74-8.79-2.4-13.21,6.38-8.67,14.6-15.92,24.07-20.94,4.46-2.37,5.87-8.12,3.16-12.85-1.92-3.36-5.4-5.3-8.85-5.3-1.42,0-2.83.33-4.13,1.02-6.05,3.21-11.69,7.17-16.83,11.71-.51-9.85-.57-19.72-.42-29.56,1.58.91,3.28,1.35,4.94,1.35,2.92,0,5.68-1.38,7.3-3.99,2.66-4.31,1.18-10.29-3.31-13.36-2.89-1.97-5.62-4.08-8.28-6.25.12-3.15.25-6.29.38-9.42l4.73-115.25c.87-.62,1.66-1.38,2.27-2.34,8.52-13.41,23.19-22.54,39.25-24.41,5.12-.6,8.44-5.34,7.43-10.6-.95-4.89-5.32-8.5-10.04-8.5-.35,0-.71.02-1.07.06-12.81,1.49-24.93,6.51-35.01,14.14-.32-2.38-.73-4.71-1.24-7.01l1.34-32.73c.19-.09.4-.15.59-.25,7.09-3.9,15.37-5.85,23.81-5.85s17.87,2.14,25.9,6.4c2.03,1.08,4.02,2.28,6.01,3.48,4.9,2.95,10.46,6.29,16.81,8.15,4.01,1.17,7.92,1.69,11.75,1.69,12.99,0,24.99-5.93,36.32-12.24,4.41-2.45,5.71-8.24,2.92-12.93-1.94-3.28-5.37-5.15-8.75-5.15-1.48,0-2.95.35-4.28,1.1-9.56,5.32-18.91,10.04-27.79,10.04-2.15,0-4.27-.28-6.35-.89-3.84-1.12-7.81-3.51-12.02-6.04-2.23-1.34-4.54-2.73-6.98-4.03-1.61-.86-3.26-1.63-4.91-2.36,6.23-7.97,11.84-16.37,16.76-25.21l27.01,11.18c1.23.51,2.49.75,3.71.75,3.67,0,6.99-2.2,8.2-5.86,1.61-4.87-1.09-10.49-6.05-12.55l-24.58-10.17c2.72-6.15,5.16-12.46,7.29-18.94,1.59-4.88-1.13-10.49-6.1-12.52-1.22-.5-2.47-.74-3.68-.74-3.69,0-7.01,2.22-8.21,5.9-7.17,21.9-18.1,41.85-32.49,59.28-.79.96-1.32,2.06-1.64,3.21-3.46-.5-6.94-.74-10.39-.74-7.53,0-14.96,1.18-21.97,3.53l.93-22.59c9.09-4.39,18.91-7.49,28.98-9.04,5.08-.78,8.22-5.66,7.02-10.89-1.09-4.75-5.39-8.16-9.97-8.16-.46,0-.93.03-1.4.11-8.12,1.25-16.09,3.37-23.75,6.23l.91-22.22,58.27-15.43c4.93-1.31,7.55-6.52,5.84-11.64-1.44-4.34-5.5-7.22-9.7-7.22-.77,0-1.54.1-2.31.3l-48.91,12.95c-.05-1.18-.28-2.39-.77-3.58-.4-.97-.85-1.89-1.29-2.82l1.35-32.79c.03-.66.06-1.33.08-2,10.2-1.25,20.54-1.88,30.94-1.88,24.77,0,49.86,3.56,74.12,10.66.94.27,1.88.41,2.79.41,4.2,0,7.85-2.79,8.74-7.1,1.09-5.24-2.31-10.74-7.59-12.29-10.55-3.09-21.25-5.54-32.02-7.4,10.06-9.45,21.14-17.74,33.15-24.7,4.5-2.61,5.75-8.62,2.79-13.42-2.02-3.28-5.52-5.16-8.98-5.16-1.57,0-3.13.39-4.53,1.2-17.95,10.41-34.02,23.49-47.88,38.88-7.55-.61-15.11-.92-22.63-.92-9.35,0-18.65.47-27.85,1.43.24-3.5.51-7,.86-10.48.57.1,1.14.15,1.71.15,1.78,0,3.54-.5,5.06-1.53,4.3-2.92,5.15-9.03,1.9-13.65-1.8-2.56-3.53-5.11-5.21-7.64.49-2.26,1.06-4.49,1.65-6.71.27.42.51.87.84,1.25,1.18,1.4,2.73,2.52,4.54,3.18,10.51,3.86,21.54,5.8,32.41,5.8,8.35,0,16.61-1.15,24.47-3.45,5.05-1.48,7.61-6.95,5.72-12.2-1.56-4.36-5.7-7.21-9.95-7.21-.87,0-1.75.12-2.61.37-6.19,1.81-12.69,2.72-19.26,2.72-8.56,0-17.25-1.53-25.53-4.57-1.14-.42-2.29-.61-3.41-.61-.83,0-1.65.11-2.42.32,3.07-7.77,6.79-15.16,11.06-22.24,0,.05,0,.11,0,.16.31,2.03,1.2,3.87,2.46,5.36,1.98,2.34,4.9,3.82,7.98,3.82.23,0,.47,0,.7-.03l62.24-4.59c5.33-.39,8.97-5.13,8.13-10.58-.79-5.21-5.39-9.18-10.44-9.18-.24,0-.47,0-.71.03l-62.24,4.59c-.55.04-1.06.15-1.57.28.54-.77,1.1-1.54,1.65-2.31.12,0,.23,0,.35,0,2.55,0,5.02-.99,6.76-3.01,2.05-2.38,2.61-5.6,1.82-8.62,13.33-16.25,29.01-31.39,45.14-46.94,32.44-31.25,65.99-63.58,80.85-107.97,1.63-4.87-1.06-10.49-6.02-12.56-1.24-.52-2.51-.76-3.73-.76h0ZM488.55,154.78c-9.69-14.27-13.49-32.7-9.41-48.39,5.93,11.61,13.14,22.62,21.56,32.54.32.38.66.76.98,1.14-4.51,4.79-8.9,9.69-13.13,14.71h0ZM369.96,351.36c-19.17-34.46-30.55-74.51-32.65-116.11-.13-2.55-.2-5.11-.26-7.68,18.56-5.43,36.28-13.96,52.08-24.92.09.1.15.21.24.3,9.96,10.38,10.9,25.57,12.01,43.16.6,9.55,1.24,19.29,3.4,28.82-1.03-.07-2.06-.1-3.08-.1-7.59,0-15.01,1.85-21.41,5.54-4.51,2.6-5.77,8.61-2.81,13.41.3.49.64.95,1,1.38,2.07,2.44,5.04,3.8,7.98,3.8,1.57,0,3.12-.39,4.53-1.2,3.64-2.11,7.99-3.18,12.41-3.18,3.24,0,6.52.58,9.58,1.75.09.03.17.04.26.07,4.27,7.02,9.61,12.95,14.78,18.71,4.68,5.2,9.15,10.18,12.32,15.46l-.4,9.67c-1.8,2.29-2.42,5.51-1.36,8.7.24.71.55,1.37.92,2l-1.41,34.39c-1.44.86-2.88,1.73-4.27,2.65-4.2,2.78-5.09,8.67-1.99,13.18.21.31.43.6.67.87,1.31,1.55,2.99,2.61,4.78,3.18l-1.31,31.95c-8.05-11.71-17.72-22.66-27.25-33.45-5.86-6.64-11.39-12.9-16.56-19.32-3.35-4.16-6.52-8.49-9.59-12.91.69-.75,1.3-1.6,1.71-2.6,7.03-17.01,16.17-32.96,27.17-47.41,3.16-4.14,2.2-10.4-2.19-13.95-1.97-1.6-4.28-2.39-6.53-2.39-2.74,0-5.36,1.17-7.1,3.45-10.05,13.19-18.64,27.54-25.66,42.75h0ZM317.24,254.6c-3.98,0-7.96-.16-11.95-.53,2.64-2.08,5.12-4.34,7.47-6.74,1.9-.38,3.66-1.34,4.98-2.9.52-.62.91-1.3,1.24-2.01.31,4.07.7,8.13,1.18,12.16-.97.02-1.94.03-2.92.03h0ZM240.35,380.59l-13.95-16.04c-.17-.5-.35-1-.6-1.48-1.08-2.11-2.78-3.67-4.72-4.63l-46.1-53.01c-10.39-11.94-22.11-25.48-26-40.52,7.58-2.95,15.38-5.44,23.35-7.37,4.96-1.2,7.69-6.35,6.08-11.51-.04-.11-.1-.21-.14-.32,26.68,14.67,51.47,32.77,73.9,54.11,19.42,18.48,30.79,33.95,36.81,50.14,4.58,12.31,6.18,25.94,7.73,39.11l10.22,87.1c-12.65-13.31-27.03-25.58-42.83-36.55-10.96-21.02-10.96-46.78.07-65.91,2.54-4.4.89-10.35-3.67-13.29-1.7-1.1-3.57-1.62-5.37-1.62-3.03,0-5.89,1.49-7.48,4.25-3.16,5.47-5.57,11.39-7.32,17.55h0ZM252.09,271.13c6.74,0,13.45-.48,20.14-1.81,2.53-.51,5.01-1.14,7.46-1.89,1.24,1.07,2.73,1.87,4.38,2.26,11.63,2.74,23.41,4.07,35.12,4.07,1.29,0,2.59-.02,3.88-.05,3.09,16.69,7.57,32.96,13.39,48.57-17.35-7.14-34.48-15.18-51.07-24.04-1.5-.8-3.07-1.18-4.59-1.18-1.61,0-3.16.42-4.5,1.21-4.14-4.45-8.19-8.44-11.83-11.91-5.58-5.31-11.35-10.37-17.2-15.3,1.6.05,3.21.08,4.8.08h0ZM127.24,377.09c3.19,0,6.17-1.65,7.7-4.64,2.31-4.53.4-10.41-4.29-13.15-4.28-2.5-8.02-6.07-10.85-10.21,14.36-9.8,27.45-21.4,38.96-34.61.84.97,1.7,1.98,2.51,2.92l39.11,44.97c-4.46.96-9.07,1.44-13.72,1.44-8.96,0-18.06-1.78-26.53-5.35-1.25-.53-2.53-.78-3.77-.78-3.65,0-6.95,2.17-8.18,5.81-1.13,3.32-.24,7.01,2.02,9.67,1.04,1.23,2.38,2.25,3.95,2.9,10.88,4.58,22.56,6.87,34.06,6.87,9.06,0,18.01-1.42,26.35-4.26l21.43,24.64c.33.38.71.71,1.08,1.03,0,6.56.72,13.17,2.11,19.69-16.67-9.33-34.51-17.31-53.28-23.69-18.43-6.26-37.51-11.09-55.96-15.75-17.39-4.4-34.36-8.69-50.65-14.03,8.62-3.41,16.94-7.38,24.96-11.86,1.16,1.72,2.4,3.39,3.75,4.98,4.06,4.79,8.92,8.91,14.27,12.03,1.6.93,3.31,1.37,4.96,1.37h0ZM319.13,419.49l-3.65-31.12c-1.69-14.37-3.43-29.22-8.88-43.84-2.61-7.01-6-13.61-9.8-19.79,15.56,7.6,31.46,14.55,47.49,20.67.77.3,1.55.45,2.32.55,8.04,16.64,17.67,32.27,28.79,46.56-7.06,14.28-22.73,23.48-39,23.48-2.64,0-5.3-.24-7.94-.75-.6-.11-1.2-.17-1.78-.17-3.23,0-6.06,1.71-7.54,4.41h0ZM338.08,435.16c20.39,0,39.64-10.05,50.68-26.55,2.11,2.42,4.23,4.85,6.33,7.22,17.26,19.51,33.65,38.09,39.3,59.33l-2.79,67.97c-17.97-25.96-36.78-52-58.73-75.45-.78-1.32-1.85-2.42-3.08-3.28-6.23-6.5-12.72-12.79-19.52-18.8-1.96-1.73-4.34-2.59-6.65-2.59-2.51,0-4.93,1.02-6.62,3.03-3.24,3.86-2.54,9.94,1.54,13.54,6.13,5.42,12,11.11,17.68,17.02,5.65,32.16,11.7,65.28,24.27,97.04,6.9,17.43,17.85,39.23,34.5,58.86,3.84,4.52,7.99,8.92,12.46,13.13-.64,19.86-.75,40.01,1.36,60.24-24.39-28.52-43.62-61.53-55.57-96.4-2.8-8.17-5.3-16.7-7.73-24.95-3.92-13.33-7.96-27.12-13.53-40.51-6.42-15.44-14.95-30.28-25.27-44.3.95-1.62,1.41-3.58,1.16-5.7l-7.47-63.63c.04.05.07.12.12.17,1.5,1.77,3.58,3.07,5.95,3.52,3.87.74,7.76,1.1,11.6,1.1h0ZM312.51,589.07c-12.13-13.04-22.29-28.43-32.13-43.37l-30.72-46.69c13.01-3.91,25.3-9.74,36.35-17.28,21.19,20.4,37.72,43.7,48.08,68.64,5.12,12.31,8.83,24.95,12.76,38.32,2.49,8.47,5.06,17.23,8.02,25.86.79,2.31,1.68,4.59,2.53,6.88-10.81-4.86-21.1-11.23-30.44-18.81,1.44-1.05,2.55-2.55,3.12-4.42,8.85-29.09-3.47-64.11-29.29-83.27-1.83-1.36-3.92-2.02-5.94-2.02-2.81,0-5.48,1.27-7.13,3.7-2.85,4.18-1.6,10.2,2.76,13.44,18.03,13.4,27.23,38.39,22.05,59.02h0ZM621.35,556.44c4.69-13.18,12.07-25.23,21.51-35.25,3.62-.51,6.5-3.17,7.2-6.92,5.13-4.43,10.7-8.33,16.66-11.55,4.44-2.4,5.81-8.16,3.07-12.88-.4-.69-.88-1.29-1.39-1.85,2.88-.8,5.98-1.12,9.28-1.12,6.52,0,13.8,1.27,21.64,2.64,8.48,1.49,17.15,2.98,25.78,2.98,1.64,0,3.27-.05,4.9-.17l-20.83,47.32c-.45-.06-.9-.1-1.35-.1-1.37,0-2.74.3-4.01.95-26.83,13.67-45.64,37.39-63.83,60.32-15.55,19.6-30.41,38.31-49.48,50.49-1.26-2.86-2.76-5.62-4.55-8.21-2-2.92-5.23-4.54-8.39-4.54-1.69,0-3.36.46-4.82,1.43-4.19,2.78-5.08,8.68-1.98,13.18,1.42,2.06,2.56,4.3,3.39,6.63-3.74,2.31-5.17,7.21-3.14,11.66.42.92.95,1.75,1.58,2.49,1.03,1.21,2.3,2.16,3.68,2.79.19.48.37.97.62,1.42-12.35,3.71-24.51,7.93-36.41,12.69,3.63-11.18,6.89-22.48,9.79-33.91,2.58-1.13,4.52-3.47,5.01-6.55,6.89-43.73,48.03-77.56,92.16-77.57,2.82,0,5.65.14,8.49.42.32.03.63.05.94.05,4.78,0,8.57-3.69,8.65-8.64.08-5.26-4.08-9.95-9.3-10.47-3.51-.35-7-.52-10.47-.52-8.3,0-16.47.97-24.38,2.8h0ZM428.44,620.15c-14.58-17.35-24.32-36.77-30.49-52.35-8.14-20.56-13.43-42.18-17.74-63.82,16.3,20.25,31.13,41.82,45.68,62.99.21.31.44.6.67.88,1.09,1.29,2.45,2.23,3.9,2.85l-2.03,49.45h0ZM594.58,673.22c.03-.48.09-.96.1-1.44,25-13.6,42.97-36.25,60.41-58.25,13.25-16.7,25.95-32.7,41.25-44.76l-3.01,6.83c-4.44,10.07-11.08,25.21-6.51,39.76-32.09,23.23-55.23,57.82-77.75,91.58-3.02,4.53-6.03,9.04-9.04,13.49-.98,1.45-1.95,2.83-2.92,4.23-3.55,1.2-5.92,4.51-5.98,8.43-28.86,39.65-54.14,59.74-75.3,69.85-1.97.18-3.72.99-5.08,2.27-9.7,4.05-18.47,6.05-26.25,7.01,3.03-5.64,6.15-11.24,9.26-16.82,2.89-5.19,5.77-10.34,8.55-15.47,5.04-9.31,9.77-18.76,14.23-28.32,1.89,1.79,4.36,2.89,6.92,2.89.56,0,1.13-.05,1.7-.17,4.38-.87,7.18-4.79,6.89-9.23.92-.29,2.28-.49,3.77-.49s3.21.21,4.71.76c7.71,2.8,13.86,3.95,18.76,3.95,10.62,0,15.38-5.38,17.46-10.9,1.8-4.79-.71-10.49-5.6-12.73-1.34-.61-2.71-.9-4.05-.9-3.46,0-6.62,1.95-7.99,5.29-.25.07-.74.16-1.55.16-1.89,0-5.52-.48-12-2.84-3.41-1.24-7.4-1.94-11.41-1.94-2.19,0-4.39.21-6.5.66,1.05-2.6,2.09-5.2,3.1-7.82.75-.28,1.48-.63,2.14-1.13,1.2-.91,2.05-2.1,2.62-3.41.87-.09,1.73-.28,2.55-.64,25.62-11.06,52.6-19.62,80.2-25.44,5.01-1.06,7.89-6.11,6.42-11.29-1.28-4.54-5.46-7.67-9.84-7.67-.62,0-1.25.06-1.88.2-6.16,1.3-12.29,2.76-18.39,4.32h0ZM710.77,595.7c.6,0,1.21-.06,1.81-.2,23.47-5.26,45.97-11.23,63.76-22.94-25.7,20.57-50.15,45.74-61.86,79.32l-25.55,18.97-12.02,3.68c-4.23,1.3-6.64,5.41-6.14,9.8l-18.8,13.96c-2.53,1.88-5.12,3.8-7.77,5.71-1.31-.57-2.67-.84-4-.84-3.23,0-6.25,1.63-7.84,4.64-.8,1.5-1.11,3.16-1.04,4.82-1.28.77-2.57,1.53-3.87,2.26,27.13-40.63,55.57-81.86,99.19-99.22,4.71-1.87,6.7-7.4,4.46-12.35-1.74-3.83-5.51-6.19-9.3-6.19-1.11,0-2.22.2-3.29.63-5.49,2.19-10.71,4.73-15.75,7.5.19-3.53,1.2-7.39,2.6-11.37,1.59,1.15,3.48,1.83,5.42,1.83h0ZM490.96,830.81c-1.51,12.61,1.14,26.05,7.24,37.82-2.05-1.01-4.12-2-6.19-2.96-6.48-2.99-14.88-5.39-22.83-5.39-1.87,0-3.71.13-5.49.42,2.7-9.84,6.56-19.57,11.07-29.21,1.03.36,2.1.6,3.2.6.11,0,.22,0,.33,0,4.31-.19,8.53-.63,12.67-1.27h0Z"/>
</svg>